<svg width="211" height="26" viewBox="0 0 211 26" fill="none" xmlns="http://www.w3.org/2000/svg">
<path d="M211 0.207823C209.339 5.1271 206.529 3.92151 210.317 5.90308C210.472 8.20336 207.445 9.79693 204.107 11.4459C204.511 11.6399 205.83 12.2081 205.753 12.3882C205.473 13.0533 206.482 13.5799 206.715 14.1896C209.261 14.4945 206.001 14.8548 209.323 16.5453C208.25 17.6409 206.89 18.4834 205.364 18.9981C185.772 26.4671 155.095 24.2776 128.749 23.1552C68.0615 20.5501 37.8033 28.5318 13.0409 25.1506C1.84742 23.6125 0.512324 22.6979 0 14.6469C0 14.4391 1.17986 7.91239 2.48396 7.23339C6.62683 5.19352 11.3283 4.23324 16.0528 4.46197C129.82 -4.30959 125.38 2.74369 150.763 1.69054C152.704 1.6074 203.222 2.18936 207.786 0.692788C208.828 0.400413 209.909 0.237252 211 0.207823Z" fill="#25D366"/>
</svg>
