<svg id="Layer_1" data-name="Layer 1" xmlns="http://www.w3.org/2000/svg" xmlns:xlink="http://www.w3.org/1999/xlink" viewBox="0 0 196.55 77.72"><defs><style>.cls-1{fill:none;}.cls-2{fill:#f7b03c;}.cls-3{fill:#0eb8ad;}.cls-4{fill:#fff;}.cls-5{fill:url(#New_Pattern_Swatch_4);}.cls-6{fill:#ff6a77;}.cls-7{fill:#ff6f7c;}.cls-8{fill:#ff5c51;}.cls-9{fill:#ff752b;}.cls-10{fill:#db250d;}.cls-11{fill:#ffa69e;}.cls-12{fill:#ff6751;}.cls-13{fill:#29abe2;}.cls-14{fill:#e34a80;}.cls-15{fill:#ff527d;}.cls-16{fill:url(#New_Pattern_Swatch_6);}</style><pattern id="New_Pattern_Swatch_4" data-name="New Pattern Swatch 4" width="3.38" height="3.38" patternTransform="translate(1.5 0.06)" patternUnits="userSpaceOnUse" viewBox="0 0 3.38 3.38"><rect class="cls-1" width="3.38" height="3.38"/><rect class="cls-2" width="3.38" height="3.38"/></pattern><pattern id="New_Pattern_Swatch_6" data-name="New Pattern Swatch 6" width="3" height="3" patternTransform="translate(1.88 -0.31)" patternUnits="userSpaceOnUse" viewBox="0 0 3 3"><rect class="cls-1" width="3" height="3"/><rect class="cls-3" width="3" height="3"/></pattern></defs><rect class="cls-4" x="68.22" y="52.72" width="25" height="25"/><path class="cls-5" d="M24.09,19.53c.07-.1,0-.11-.28-.11h0c.05,0,.05,0,.06,0s.09-.11.1-.16A.34.34,0,0,0,24,19s0,0,0,0,0-.08-.16-.07-.14,0-.15-.06,0-.1.08-.15.15-.14.12-.22,0-.06,0-.09-.09-.17-.36-.16a2.38,2.38,0,0,0-.38,0h0a5.61,5.61,0,0,0-.58,0c-.43,0-.85,0-1.27,0-.21,0-.44,0-.65,0a5.18,5.18,0,0,0-.79,0,2.55,2.55,0,0,0-.48,0c-.35,0-.67,0-1,0h0c-.16,0-.34,0-.5,0h0l-.58,0a3.62,3.62,0,0,0-.57,0h0a4.13,4.13,0,0,1-.5,0l-.5,0-.46,0h0l-.36,0c.18,0,.18,0,.21,0-.13,0-.27,0-.39,0h-.28c-.09,0-.18,0-.2,0l-.06.13h-.56a.28.28,0,0,0-.16,0s-.09,0-.12,0,0,0,0,0H13s.06,0,.06,0-.11,0-.12,0h.09l0,0s0,0,0,0h.08l-.15.11,0,0s0,0,.05,0h0s0,.05.14.05v0s-.05,0,0,0l.07,0s-.08,0-.1,0h.07a1.21,1.21,0,0,0,.19,0h-.19l.15,0h0a.69.69,0,0,0-.22,0l.45,0v0s-.16,0-.23.06a1.5,1.5,0,0,1-.22,0c-.06,0-.14,0-.2,0h0a1.08,1.08,0,0,0-.31,0h-.11s-.09,0-.11,0-.07,0-.06,0,.06.07-.05.11l.06,0,0,0s0,.05,0,.07l0,0s-.08.08.12.08h0l.07,0a1.47,1.47,0,0,0,.21,0h.17a.93.93,0,0,1,.24,0h0s0,0,0,.07h0v-.07c-.06,0,0,.05,0,.08s0,0,0,.07,0,0,0,.07v0s.11,0,.12,0,0,.06.1.05h.19a4.17,4.17,0,0,0,.5,0h0c.13,0,.26,0,.39,0h0s0,0,0,0h.08s-.07,0-.07,0h.18a2.91,2.91,0,0,0,.42,0h.18a2.14,2.14,0,0,0,.36,0h.26c.12,0,.24,0,.36,0h.1a1.79,1.79,0,0,0,.4,0h.33a2.88,2.88,0,0,0,.51,0h4.6A5.89,5.89,0,0,0,23.48,20h0l.34,0a.28.28,0,0,0,.15,0c.12,0,0-.09.08-.13s0,0,0-.06,0-.08,0-.11S24.1,19.55,24.09,19.53ZM18.31,20Zm-5.78-.39h0Zm11.12-.75Zm-3,.8h0Zm-7.07-.5h0Zm10.09-.25Zm-9.52-.1h0Zm9.1-.37Zm-4.29,1.29h0A0,0,0,0,1,18.92,19.69Zm-.86-1Zm4.16.36h0Zm-5.66.28Zm.14-.08Zm1.1-.41h0Zm-.55.33h0Zm2.81-.31h0Zm-.16.48h0Zm1.68-.64h0Zm-3.5.13h0Zm-2.33-.11h0Zm-.3,0Zm-1,.43Zm0,0Zm.2-.16h0Zm6.8.17h0Zm.19.09Zm.84-.47Zm.31-.08s0,0,0,0S22.74,18.8,22.75,18.79Zm-.35-.4h0a2.77,2.77,0,0,1-.3,0A.89.89,0,0,0,22.4,18.39Zm-5.28.37Zm-1.39,1h0Zm5.89-.41.08,0Zm.56-.08h0Zm.23-.18h0Zm.8-.21Zm-4.66-.3h0Zm0-.06h0Zm-2.94.13h0Zm-.81.17.09,0s0,0,0,0Zm-.51,1.12Zm.85-.42h0Zm1.23.22s0,0,0,0h0Zm1.28.17h0Zm1.85-.18h0Zm1.4.06Zm2.3-1h0Zm-.13-.43Zm-6.67.19h0Zm-1.78.11h0Zm-1.21.5Zm.21.81h0ZM17,19.7Zm1.83.15h0ZM20,19.69Zm.33-.11h0Zm1,0h0Zm1.16-.36h0Zm.61.28s0,0,0,0h0Zm.45-.68h0Zm-.24-.09v0h0S23.39,18.75,23.39,18.76Zm-.1-.08Zm-1.62-.4Zm-5,.17h0Zm-3.34.4Zm-.87.58h0Zm0,0Zm.27,0h0s0,0,0,0Zm1.07.48h0Zm9.44-.21h0S23.28,19.75,23.27,19.75Zm.52-1.37Zm-2.22-.15h0Zm-2.47.1Zm-1.12,0Zm-.83,0Zm-3.52.34h0S13.65,18.71,13.63,18.72Zm-.26.43Zm-.46.18h0Zm1.78.63h0Zm5.16.05h0Zm1.3,0h0Zm2,0h0Z" transform="translate(68.22 52.72)"/><path class="cls-6" d="M24.13,16c0-.05,0-.1,0-.15s0,0,0-.06,0,0,0-.07-.07-.09-.25-.09H22c-.06,0-.14,0-.21,0H21.2a.53.53,0,0,0-.18,0H21a.53.53,0,0,0-.18,0h-.53a.21.21,0,0,0-.11,0h-.21a.53.53,0,0,0-.18,0H19.6a6.21,6.21,0,0,0-.75,0l-.57,0c-.14,0-.29,0-.43,0h-.57c-.18,0-.38,0-.57,0h-1a2.14,2.14,0,0,0-.36,0h-.45c-.22,0-.45,0-.68,0h-.61a3.11,3.11,0,0,0-.43,0,1.59,1.59,0,0,0-.45,0h0c-.06,0-.13,0-.14,0h0a1.84,1.84,0,0,0-.39,0h.14c-.32,0-.32,0-.28.14v0a.1.1,0,0,0,0,.15s0,.06,0,.1a.38.38,0,0,0,.15,0h.21l.61.06h0a2.4,2.4,0,0,0,.54,0s.14,0,.18,0l-.06.05c0,.06-.14.06-.26.08h-.14s-.1,0-.15,0-.08,0-.06.07h0s-.13,0,0,0l0,0c-.05,0-.05,0-.05,0s-.06,0-.12,0-.16,0-.15,0,.09,0,.15,0h.07v0h-.22s-.07,0-.11,0h.32v0a.35.35,0,0,1-.16,0h-.17s-.08,0-.06,0h.07a.57.57,0,0,1,.15,0s0,0,0,0l0,.06s-.05,0,0,.05V17s0,0,0,0-.13.05,0,.07a.09.09,0,0,0,.05.06s-.05,0,.06,0,.23,0,.36,0h.43c.32,0,.65,0,1,0H17a4.86,4.86,0,0,0,.54,0h0s0,0,0,0,.21,0,.31,0a2.71,2.71,0,0,1,.29,0H19c.52,0,1,0,1.55,0H22s0,0,0,0h1.16c.15,0,.26,0,.24-.07l0,0h0l-.06,0h0a.08.08,0,0,0,.06,0v-.16s0,0,0-.06l0,0s.06-.05.05-.08,0,0,0-.05,0-.06,0-.09h0c.06,0,0-.05,0-.07h0c-.07,0,0-.06,0-.09s0-.14,0-.21l0,0s0,0,0,0v0h0a.93.93,0,0,0,.29,0s.08,0,.11,0,.06,0,.1,0C24.18,16.1,24.1,16,24.13,16Zm-7.59,1.19Zm-3.39-1.32h0Zm9.36-.08h0Zm-3.59,1.36Zm2.18-1.51Zm2.06.65Zm-.22.34h0Zm-1.06.21h0ZM18.75,17h0Zm-4.82-1.19Zm7.79,1.07Zm-4.74,0h0Zm-2-.43s0,0,0,0Zm.14.22h0a.07.07,0,0,0-.08,0S15.12,16.62,15.15,16.62Zm.5-.56Zm-.36.15h0Zm1.29,0s.06,0,.1,0A.12.12,0,0,0,16.58,16.22Zm.71-.13Zm-1.12.05Zm-1,0h0Zm2.15.34h0Zm.55-.23h0ZM17.38,16h0Zm-.45.14Zm2.17.06s0,0,0,0h0ZM18,15.93ZM16.83,16h0ZM15,16h0Zm.63.67a0,0,0,0,1,0,0Zm1.32,0h0Zm.56,0h0Zm.13,0h0S17.64,16.71,17.64,16.7Zm1.62-.48h0Zm-4.12-.31h0s0,0,0,0h0Zm1.65.82h0Zm1.39.05h0a.37.37,0,0,0-.15,0Zm3.88-.44Zm-.57.13h0Zm-.14-.1h0Zm.29,0h0Zm-.63,0Zm.52-.2h0Zm-1.52,0h0Zm0,.18s0,0,0,0S20.06,16.42,20.05,16.43Zm-.28,0Zm.65.14Zm1.58.11Zm.12.06Zm-2.05-.7h0Zm1.9.66h.08l-.06,0h0Zm.45-.15.17,0h0A.44.44,0,0,0,22.42,16.56ZM19.1,16Zm-3.45-.12-.06,0Zm-.65,0h0Zm-.45.28Zm2.15.59s0,0,0,0h-.06Zm1,0Zm.86,0h0S18.56,16.69,18.57,16.7Zm1.27-.2h0Zm.68.1Zm1.21.2h0Zm1-.3h0Zm.05-.22h0s0,0,0,0Zm-.47-.2h0Zm-2.12-.16Zm-5-.12Zm-1.07.13h0ZM14,16.8h0Zm-.17,0Zm1.86.11h0Zm3.71-.08h0Zm.05,0h0Zm3.44-.23Zm.05-.3Zm-3.15-.41h0Zm-1.4-.13h0s0,0,.05,0h0S18.4,15.76,18.36,15.77Zm-.82,0h0Zm-.21-.09h0Zm-1.07.09h0Zm0,0h0Zm-2.09-.07Zm-.16.19h0Zm-.63.91h0Zm.09.11Zm2.43,0h0Zm4.17-.13h0Zm2.57.07h0Zm.86-1.11Zm-.28-.06Zm-4.09,0h0Zm-2.32-.08h0Zm-.11.08h0Zm-.56,0h0Zm-.36-.11Zm-.38,0h0Zm-1-.07h0Zm-.84.09h0Zm1,.75h0Zm-.15.06Zm-.87.21Zm4.09.31Zm2.09.07h0Zm1.37-1.33h0Zm-3.32-.2Zm-1,.11h0Zm-.47,0Zm-1.15,0s0,0,0,0h0Zm-.61-.11Zm-.63.07s-.05,0,0,0h0Zm-.87.14h0Zm2.61,1.42ZM23.18,17Zm.51-1.25h0Zm-1.25,0h0Zm-1.59-.12Zm-1.11.06Zm-1.88-.19h0Zm-2.73,0h0ZM13.05,16Zm.61.06h0Zm-.47.84Zm7.55.3Zm1.14,0Zm1.41-1h0Zm-.79-.43a.23.23,0,0,0-.12,0h0a.16.16,0,0,0,.1,0Zm-6.16-.29h0Zm-.9,0h0Zm0,0h-.21A.5.5,0,0,0,15.43,15.46Zm-.23,0h0Zm-1.75,0a.15.15,0,0,0-.1,0h0Zm-.83.54h0Zm4.8,1.17h0Zm4.74,0h0Zm1.21-.32Zm.05,0h0Zm.09-.5h0Z" transform="translate(68.22 52.72)"/><path class="cls-6" d="M12.8,16.31l.24,0A.49.49,0,0,0,12.8,16.31Z" transform="translate(68.22 52.72)"/><path class="cls-6" d="M24.17,16.67c-.07,0-.1,0-.11,0A.23.23,0,0,0,24.17,16.67Z" transform="translate(68.22 52.72)"/><path class="cls-6" d="M23.49,17.17s0,0,0,0,0,0,0,0h0Z" transform="translate(68.22 52.72)"/><path class="cls-6" d="M24.36,17.19h0Z" transform="translate(68.22 52.72)"/><path class="cls-6" d="M22.49,15.47h0Z" transform="translate(68.22 52.72)"/><path class="cls-7" d="M2.91,7.24h0C3,7.26,2.93,7.25,2.91,7.24Z" transform="translate(68.22 52.72)"/><path class="cls-7" d="M1.53,6.44a.16.16,0,0,0-.1,0h.12Z" transform="translate(68.22 52.72)"/><path class="cls-7" d="M2.48,6.11H2.42s0,0,0,0l.05,0Z" transform="translate(68.22 52.72)"/><path class="cls-7" d="M11.67,7.66l-.12-.11h0s0,0,0-.07a.16.16,0,0,0-.08,0s-.05,0,0,0,0,0,0,0h0s-.12,0-.16,0a2.21,2.21,0,0,0-.4-.07h0l.18,0c.64-.08.6,0,.59-.27,0,0-.08-.07-.07-.11s0-.1-.18-.11c.05-.06-.09-.07-.23-.08a3.31,3.31,0,0,0-.47-.07h0v0h0c-.06,0,0,0,0-.07s0-.06,0-.08,0,0,0-.08a1,1,0,0,0-.3,0h0a1.77,1.77,0,0,0,.33,0s-.09-.08-.08-.13,0,0-.07,0h0v0c.1-.06-.12,0-.15-.07s.09,0,.07,0,0,0-.08,0l-.13,0h-.12a2.58,2.58,0,0,1-.29,0,1.33,1.33,0,0,0-.41,0,2.15,2.15,0,0,0-.52,0H8.75a.59.59,0,0,1-.23,0c-.08,0-.1,0-.15,0H8.19s0,0,0,0H7.9c-.06,0-.07,0-.11,0L7.24,6H6.9a.92.92,0,0,0-.29,0h-.3c-.08,0-.08,0-.11,0H5.91L5.57,6H5.49a.12.12,0,0,0-.08,0s0,0,0,0h0s0,0,0,0a1.69,1.69,0,0,0-.55,0s0,0,0,0H4.31a4.91,4.91,0,0,0-.55,0H3.59s0,0,0,0H3.17a.58.58,0,0,0-.19,0,2.07,2.07,0,0,0-.37,0h0s0,0-.08,0l0,0s0,0,0,0h0a.33.33,0,0,0-.15,0h0s-.18,0-.07,0h-.1l-.16,0h0c-.11,0-.05,0-.07,0a.1.1,0,0,0,.07,0h0s-.09,0,0,0,.05,0,.08,0H1.88c-.1,0-.09,0-.08,0H1.61l.08,0-.08,0a.2.2,0,0,0-.11,0l.15,0c.07.05.22,0,.34,0H2l-.19,0-.32,0h.36c.08,0-.08,0-.07,0s-.09,0-.08,0,.07,0,.11,0l.19,0h0l0,0h0a.82.82,0,0,0-.22,0h.28c-.1,0-.1,0,0,0s.16,0,.23,0h.52L3,6.9h.3l0,0h0s-.08,0-.08,0,0,0,.08,0l0,0h.06s-.15,0-.1,0-.24,0-.33.07c.13,0,.24,0,.35,0h.08l-.26,0a1.71,1.71,0,0,0-.25,0,.71.71,0,0,0,.21,0h0a.11.11,0,0,0,.08,0c.05,0,.1,0,0,0s-.14,0-.15,0a.94.94,0,0,0,.29,0h0a.28.28,0,0,1-.15,0s-.1,0-.12,0,.07,0,.08,0H3.1a.79.79,0,0,0-.22,0h0a.53.53,0,0,0,.22,0h0L3,7.35a.15.15,0,0,0-.09,0h.24s0,0,0,0a3.31,3.31,0,0,1,.34,0h.1s-.09,0,0,0h.24s0,0,.08,0H4.2a1.72,1.72,0,0,1-.26,0l-.21,0-.12,0s0,0,0,0l-.22,0h0c-.07,0-.1,0-.11,0s0,0,.08,0-.1,0-.12,0l-.1,0H2.88s0,0,0,0h0l-.17,0h.16c-.07,0-.23,0-.07,0h0l0,0c-.09,0,0,0,0,.06s.07.06.06.09.12,0,.2,0h.22v0h0a1.33,1.33,0,0,0-.21,0,.49.49,0,0,0,.17,0h0c.15,0,.3,0,.45,0s.07.06.26,0h.11s.09,0,.15,0h.5a.69.69,0,0,0-.25,0h1a2.26,2.26,0,0,1,.26,0h.21a.87.87,0,0,0,.23,0h.34a1,1,0,0,0-.42,0,1.93,1.93,0,0,1,.42,0c.11,0,.25,0,.36,0,.29,0,.56,0,.85,0a.61.61,0,0,0,.19,0h.07a1.94,1.94,0,0,0,.34,0L9.64,8h.18l.43,0h.47A1.29,1.29,0,0,0,11,8a2.28,2.28,0,0,0,.26,0c.27,0,.37,0,.37-.13s0,0,0-.08S11.72,7.68,11.67,7.66ZM4.06,7.31s0,0,0,0,0,0,0,0Zm-1.14-1h0Zm7.91.42Zm-.72-.43ZM6,7.89H6ZM10.34,7h0ZM3.79,6.3h0ZM7,6.27ZM9.35,6h0ZM5.43,7.69h0l.08,0S5.47,7.69,5.43,7.69ZM8.75,6.3Zm-1.42.75Zm-.87-.21ZM7.19,7h0Zm-.51-.18ZM7.8,7ZM5.61,6.77Zm.14-.18Zm-.14.19h0ZM6.05,7ZM5.12,6.6h0ZM6,7.11Zm2.39-.75ZM5,7H5Zm.66,0h0Zm.64.27s0,0,0,0h0Zm3.46-.34ZM8.53,6.72h0Zm-3.36.34Zm.7.17h0ZM9.52,7h0Zm-.65-.41-.23,0ZM5.61,6.3ZM7.54,7.52h0ZM9.63,7Zm.19-.22ZM8.34,6.66ZM9,6.2Zm-.43,0a.24.24,0,0,0-.12,0h.12ZM4.23,6.4h0Zm-.36,0Zm-.27.05h0Zm2.75.88h0Zm.28.31h0Zm3.42-.76h0Zm0,0h0s0,0,.07,0Zm-.41-.48h0Zm-4.25.8h0Zm-.48.45h0Zm.62-.23Zm2.18.37h0Zm1.59-.3h0Zm1.29-.57h0ZM10.45,7Zm-1-.47h0Zm0,0ZM6.16,6.2h0Zm-.46,0h0a.87.87,0,0,1-.23,0h0A.36.36,0,0,0,5.7,6.19ZM4.19,7Zm0,.09h0Zm1.33.27h0Zm-1.18.5Zm.59,0Zm1.31-.27a.11.11,0,0,1-.08,0Zm3.44-.45h0ZM10,7h0Zm.4,0h0Zm-.25-.34Zm-.67-.21Zm-.2-.38ZM5.9,6.23h0Zm-3.4.45h0Zm2.7.58Zm2.92.47h0s0,0,0,0Zm1.33-.08Zm1.36-.35h0ZM9.67,7.19h0Zm1.09-.12h0Zm.57-.2Zm-.22,0Zm-1-.55Zm-5.95.89h0Zm5,.57h0Zm1.08-.7h0Zm1.13-.17h.07A.06.06,0,0,1,11.36,6.88Zm-.55-.16Zm0,0ZM8.62,6ZM8.46,6h0Zm-5.7.44Zm1.78.94h0Zm.17.67a1.72,1.72,0,0,1,.29,0,.89.89,0,0,0-.29,0Zm1.08,0h0ZM7,7.86H7Zm3.45-.08Zm-.09-1.24Zm-3.1-.49Zm-.38,0h0ZM2,6.45H2Zm.47.4h0Zm8.9-.13h0ZM10.12,6H10V6ZM9.84,6h0Zm-.95-.12Zm-5.59,1h0ZM4,7.45s0,0,0,0a0,0,0,0,0,0,0ZM3,7.79Zm-.18.09Zm7,.1Z" transform="translate(68.22 52.72)"/><path class="cls-7" d="M1.24,6.47h0Z" transform="translate(68.22 52.72)"/><path class="cls-8" d="M1.92,18.86h0l-.5,0A2.43,2.43,0,0,0,1.92,18.86Z" transform="translate(68.22 52.72)"/><path class="cls-8" d="M12.35,19.24v0s0,0-.09-.07,0,0,0,0L12.2,19s0-.06-.08-.08a.93.93,0,0,0-.22-.08s.07,0,.08,0v-.11s0-.09-.14-.12c.07,0,0,0,0-.05v0s0-.05-.05-.07a.21.21,0,0,0-.17-.06,4.39,4.39,0,0,0-.58-.18l-.31,0h0a3.54,3.54,0,0,0-.57,0H9.78a1.33,1.33,0,0,1-.2,0h0a1.33,1.33,0,0,0,.2,0H9.55a.87.87,0,0,0-.23,0,1.7,1.7,0,0,0-.39,0c-.2,0-.39,0-.59,0H7.73a2.43,2.43,0,0,1-.27,0,7.79,7.79,0,0,1-.84,0H5.73a.13.13,0,0,0-.09,0l-.75,0H4.76a.19.19,0,0,0-.18,0H4.31c-.2,0-.45,0-.67.07h0a1.39,1.39,0,0,1-.3,0L3,18.4c-.08,0-.2,0-.2.06H2.67l-.26,0a1.12,1.12,0,0,0-.27,0h0a1.25,1.25,0,0,0-.35,0l.4,0h.35l-.09.05c-.08,0-.09,0-.09.07H2.05s-.12,0-.1,0,.07,0,.1,0a1,1,0,0,0,.18,0,1,1,0,0,1,.18,0H2.36l-.49,0a.66.66,0,0,0-.24,0l.24,0H2l-.09,0H1.61l-.33,0a1.19,1.19,0,0,0,.33,0h0l0,0h0a1.09,1.09,0,0,0-.26,0h0c.17,0,.37,0,.53,0H2v0H1.88s0,0,0,0H2l.13,0h0l-.18,0H1.74c-.05,0,0,0,0,0H1.52a.55.55,0,0,0-.19,0h.32s0,0,0,0-.07,0,0,0h.08a.56.56,0,0,1,.18,0,2.2,2.2,0,0,1-.4.09c-.11,0-.25,0-.26.06s.05,0,0,.05.1.06.11.1l0,0h0s-.05,0-.05,0a.75.75,0,0,0,.15,0h.22s-.05,0-.09,0v0H1.6a.87.87,0,0,1,.23,0c-.11,0-.31,0-.4,0a.39.39,0,0,0,.22,0c.16,0,.31,0,.47,0h0l-.19,0a.91.91,0,0,0,.23,0c.15,0,.3,0,.45,0l.13,0-.27,0a1.3,1.3,0,0,0-.22,0,1.53,1.53,0,0,0-.49.09,4.35,4.35,0,0,0-.45.1c-.07,0-.2,0-.13.07h0c-.12,0-.38,0-.44.1s-.09,0-.09,0h0c-.06,0-.14.05,0,.07,0,0,.05.07.06.11s.16.09.11.14l.09,0h.32a.82.82,0,0,0,.27,0H2a.55.55,0,0,0,.18,0h.09l.12,0h0l-.12,0a3.17,3.17,0,0,0,.45,0h0a4.26,4.26,0,0,0,.62,0h.84a2.11,2.11,0,0,0,.36,0h0a1.82,1.82,0,0,0,.33,0c.35,0,.71,0,1.06,0h.7a1.71,1.71,0,0,0,.32,0h.35a1.2,1.2,0,0,0,.27,0h.18s0,0,0,0h0a2.67,2.67,0,0,0,.4,0,.87.87,0,0,0,.23,0H9a2.26,2.26,0,0,1,.26,0c.26,0,.51,0,.76,0a1.22,1.22,0,0,0,.27,0h.21a1.2,1.2,0,0,0,.27,0h0c.15,0,.31,0,.45,0h0c.29,0,.59,0,.88,0,.07,0,.12,0,.13,0l0,0s.15,0,0-.06c0,0,0,0,0-.06h0c.09-.06,0-.11,0-.17h0a.17.17,0,0,0-.09-.06l0,0s0-.07,0-.1h0s0,0,0,0L12,19.64s-.07-.07-.22-.08l-.13,0,0,0,0,0h.05l.17,0a.37.37,0,0,0,.19,0h.08c.1,0,.09-.06.17-.08l0-.07h0S12.4,19.26,12.35,19.24Zm-2.14-1Zm1.73.71Zm-9-.27Zm3.15,1.15ZM4.32,18.65s0,0,0,0h0l0,0Zm.57.48Zm1.64,0h0Zm-.77.13h0Zm1.44-.12a.9.9,0,0,1,.24,0A.62.62,0,0,0,7.2,19.15Zm-1.45.22h0Zm1.17,0h0ZM5.24,19.1h0Zm3.34,0h0Zm-.93.2h0Zm-3-.32H4.49s0,0,0,0h.16ZM7,19.58H7Zm2.31-.45h0Zm.33-.38h0S9.65,18.74,9.63,18.75Zm-.7-.1h0Zm-.53,0h0ZM4.11,19h0Zm1.55.65h0Zm.21,0h0Zm3.92-.47h0Zm-2-.38h0Zm-4,.73Zm5.85.07s0,0,0,0h0Zm-1.88-1Zm-2.54,0h0Zm5.62.33Zm-.52-.28h0Zm-2.76-.12Zm.37.16a1.09,1.09,0,0,1-.32,0h.32Zm-.36,0h0Zm-2.94-.2Zm5.58,1.25h0Zm.44-1.27h0ZM8.11,18.4h0Zm-1.28.29h0ZM5.7,18.6ZM6,20s0,0,0,0H6ZM9.55,20s0,0,0,0h0Zm.8-.83Zm.67-.58h0Zm-1.53-.18h0Zm-.56-.08Zm-1.74.18h0ZM3.49,20h0S3.5,20,3.49,20ZM5.11,20Zm.31,0Zm3.63.12h0Zm2.27-1.49Zm-5.05-.09ZM4,18.41a0,0,0,0,0,0,0l0,0Zm-1.22.78h0Zm.57.46,0,0h0ZM1.88,20Zm1,.18h0s0,0,0,0Zm.75.06Zm3.89-.13ZM12,19Zm-1.33-.7h0Zm-2.21,0h0Zm-2.93.18h0ZM2.27,20.11Zm6.26.13ZM11,20.17ZM4.55,18.29ZM2.1,19.4Zm.66,0Zm.71,1h0Zm6.92-.17Zm1.71-.42h0ZM12,19.22h0Zm-.54-.82h-.11S11.42,18.38,11.45,18.4Zm-5.63-.16Zm-2.3.12h0Zm-1.61,1h0Zm-1.28.71h0Zm6.3.26h.23A.59.59,0,0,0,6.93,20.35Zm1.2,0Zm2.57-.06Zm.8,0h0Z" transform="translate(68.22 52.72)"/><path class="cls-9" d="M2.11,9.56a.35.35,0,0,0,.22-.06,1.23,1.23,0,0,0-.26,0S2.09,9.55,2.11,9.56Z" transform="translate(68.22 52.72)"/><path class="cls-9" d="M4.34,9.18h.15A.26.26,0,0,0,4.34,9.18Z" transform="translate(68.22 52.72)"/><path class="cls-9" d="M2.33,9.58h0Z" transform="translate(68.22 52.72)"/><path class="cls-9" d="M4.64,9.18h0s0,0,0,0,0,0,0,0Z" transform="translate(68.22 52.72)"/><path class="cls-9" d="M2,9.67H2Z" transform="translate(68.22 52.72)"/><path class="cls-9" d="M1.76,9.61h0S1.77,9.62,1.76,9.61Z" transform="translate(68.22 52.72)"/><path class="cls-9" d="M2.51,9.39s0,0,0,0h0s0,0,0,0Z" transform="translate(68.22 52.72)"/><path class="cls-9" d="M1.76,10.76s-.07,0-.06,0,.05,0,.08,0a.58.58,0,0,1,.26,0A.23.23,0,0,0,1.76,10.76Z" transform="translate(68.22 52.72)"/><path class="cls-9" d="M1.83,10.49h0s0,0,0,0a.08.08,0,0,0,0,0,1.08,1.08,0,0,0-.19,0C1.59,10.47,1.91,10.44,1.83,10.49Z" transform="translate(68.22 52.72)"/><path class="cls-9" d="M2.44,10.41l-.06,0,.08.05C2.57,10.46,2.5,10.43,2.44,10.41Z" transform="translate(68.22 52.72)"/><path class="cls-9" d="M2.31,10.47H2.25s0,0,0,0h.07S2.36,10.48,2.31,10.47Z" transform="translate(68.22 52.72)"/><path class="cls-9" d="M2.06,10.5c0,.07.09,0,.13,0S2.1,10.5,2.06,10.5Z" transform="translate(68.22 52.72)"/><path class="cls-9" d="M2.27,10.67l-.07,0h0l.05,0Z" transform="translate(68.22 52.72)"/><path class="cls-9" d="M2.06,10.72l0-.06C2,10.68,2,10.69,2.06,10.72Z" transform="translate(68.22 52.72)"/><path class="cls-9" d="M2,10.62a.11.11,0,0,0,.08,0H2S2,10.61,2,10.62Z" transform="translate(68.22 52.72)"/><path class="cls-9" d="M11.23,11.11l0,0h0Z" transform="translate(68.22 52.72)"/><path class="cls-9" d="M11,9.53s0,0,0,0S11,9.51,11,9.53Z" transform="translate(68.22 52.72)"/><path class="cls-9" d="M7.38,11.32H7.5s0-.05-.1,0Z" transform="translate(68.22 52.72)"/><path class="cls-9" d="M10.92,10s-.15,0-.19-.09h0c.15,0,.14-.07.15-.12s.07-.14-.07-.21l0,0s-.07,0-.06,0-.1-.07-.09-.11,0,0-.07,0h0a1.14,1.14,0,0,0-.22-.12.61.61,0,0,0-.19-.06c-.08,0-.13,0-.22,0l-.22,0H9.4c-.09,0-.17,0-.25,0a3.2,3.2,0,0,0-.44,0,2.57,2.57,0,0,0-.48,0s0,0-.08,0a1,1,0,0,0-.43,0c-.14,0-.3,0-.45,0H7.06c-.08,0-.19,0-.25,0a.19.19,0,0,0-.13,0H6.62a.41.41,0,0,0-.15,0,3.75,3.75,0,0,1-.58,0H5.76a2.41,2.41,0,0,0-.38,0h0c-.13,0-.25,0-.38,0h-.2a1.07,1.07,0,0,1-.31,0c-.07,0-.11,0-.16,0h0c-.11,0-.26,0-.32-.06s-.16.05,0,.08h0a2.72,2.72,0,0,1-.28,0c-.06,0-.11,0-.06,0H3.52s-.06,0-.1-.07H3.35s0,0,0,0l.06,0s0,0,0,0-.09,0-.11,0h0l-.13,0a.55.55,0,0,0-.28.08H2.73s-.06,0-.1,0,0,0,0,0h0c-.12,0-.09.06-.14.08s0,0,.07,0,.07,0,.11,0l0,0c-.12,0-.07,0,0,.06l-.16,0-.12,0h-.2s0,0,0,0,0,0,0,0v0H2l-.15,0a1.1,1.1,0,0,0,.18,0H2s0,0,0,0H2s0,0,.09,0H2.4s-.09,0-.12,0l-.2,0h.23v0a.32.32,0,0,0-.15,0s.09,0,.11,0a.41.41,0,0,0-.16,0h.45s-.13,0,0,0l.12,0a.29.29,0,0,0,.17,0c.06,0,0,0,0,.06l-.1,0c-.06,0-.16,0-.22.06l.2,0s.08,0,0,0l-.11,0a.2.2,0,0,0-.09,0s0,.1.15.12h0c-.15,0-.06.07-.12.1h0c-.06,0,0,0-.07.06l-.15,0s-.08.05,0,.06,0,0,0,.06.13,0,0,.07,0,.05-.12.06,0,0,0,0h.07c.05,0,.09,0,.13,0a2.36,2.36,0,0,0-.28,0s-.07-.05,0-.08,0,0,0,0H2.13s-.1.07.06.09.05,0,.1,0a.27.27,0,0,1,.16.05s0,0,0,0a.24.24,0,0,0-.12,0s0,0,.12,0h0a.39.39,0,0,0,.16,0h0c.09.05,0,.1.06.15l.06,0s0,0,.07,0h0a.76.76,0,0,1,.16,0l.15,0,.16,0,.13,0,.15,0c.1,0,.22,0,.32,0,.3,0,.59,0,.88,0a.89.89,0,0,0,.23,0,2.26,2.26,0,0,0,.45,0h0a.17.17,0,0,0,.12,0h0a1.55,1.55,0,0,0,.48,0h.85a5,5,0,0,0,.55,0h0c.14,0,.29,0,.44,0h0s0,.05.07,0,0,0,.05,0h.5s0,0,0,0,0,0,0,0,.13,0,.13,0a1.91,1.91,0,0,0,.24,0,.38.38,0,0,1,.29,0c.07,0,.16-.06.23,0s0,0,.06,0a1.86,1.86,0,0,0,.32-.08h0a3.25,3.25,0,0,0,.84-.07l.07,0s.05,0,.06,0a.33.33,0,0,0,.08-.29c0-.07-.08-.14,0-.21-.06,0-.05,0-.07,0s0,0,0,0,0,0,0-.06h0l0,0v0c.08-.07,0-.14.06-.21s0-.06-.09-.08,0,0,0,0l0-.05A.14.14,0,0,0,11,10ZM4,9.3h.1a.35.35,0,0,0,.21,0h0l-.21,0h0a.17.17,0,0,0-.1,0Zm4.87,1.95h0Zm-4.43-.11h0Zm-1.36-1Zm-.42-.58h0Zm4.89,1.47h0ZM7.35,9.37h0Zm2,1.7Zm-.13,0Zm-3-1.59h0Zm-3,.33,0,0h0Zm1.57-.33Zm1.36.06Zm-.52.05h0Zm4.23.8h0Zm-4.63.37h0Zm0-.09Zm2-.93h0Zm.14,0h0Zm-1.49.42h0Zm-1,.11Zm-.46,0Zm-.07-.1Zm.47.17h0Zm.84-.25h0Zm.08-.23h0l0,0h0ZM4.46,10h0Zm1,.11h0Zm3.38,0s0,0,0,0h0l0,0Zm-.12,0h0ZM8.77,10h0Zm-.35.08h0l0,0Zm.44,0ZM9.1,10Zm-.71.37h0ZM8.27,10h0Zm-.21-.09ZM7.44,10h0Zm.37.15h0Zm.84.18h0Zm.23-.16h0Zm-1.08.07h0Zm0,.06h0Zm.75.17h0Zm.67-.28h0ZM5.64,9.73ZM5,9.85H5Zm-.29.28ZM4.29,9.9h0Zm2,.3h0a.4.4,0,0,0,.22,0h0a.14.14,0,0,0-.09,0H6.27s0,0,0,0Zm.21.2h0Zm.56,0H7Zm.75,0Zm1.69,0h0Zm.4-.35h0s0-.05,0,0h0S9.88,10.06,9.88,10.08ZM10.1,10h0Zm-5.6.71h0S4.5,10.67,4.5,10.66Zm.73-.32h0Zm.36,0h0Zm.52,0h0Zm0,0h0Zm.23.07h0Zm.32.13a.26.26,0,0,0,.15,0,.38.38,0,0,1-.15,0Zm.86-.05h0Zm1,.11h0Zm.75-.95h0Zm-2.56,0Zm0,.09Zm-.64,0h0Zm-.84.93s0,0,0,0h0Zm1.65-.11h0Zm.29-.18h0Zm.32,0h0Zm2.33.35Zm.28-.59h0ZM10,9.73h0Zm-.59-.06h0ZM9,9.51H9Zm-.67.13ZM4.62,9.7h0Zm3.29,1h0Zm0,.17Zm1.2-.06h0Zm.86-.38Zm-6.46.51h0Zm.3.19h0Zm2.32-.48h0Zm.64.16h0l0,0Zm.68.07h0Zm1.21,0h0Zm.48-1.35h0a0,0,0,0,0,0,0Zm-2.59,0Zm-.22.16ZM5.19,9.49h0ZM4,9.66ZM3.11,9.6ZM3,9.87ZM3.3,11h0s0,0-.06,0Zm.53.19Zm0,0Zm1.27-.21h0Zm3.08.22h0l0,0Zm2.13-.38h0Zm.16-.38Zm-.1-.73h0ZM10,9.44h0Zm-4.86,0-.06,0h0Zm-.23,0h0ZM4,9.66Zm-.44,0Zm-.63.07h0S2.91,9.7,2.92,9.7Zm.28,1.35ZM5.61,11Zm2,0Zm.52.06h0ZM6.09,9.39h0ZM3.86,9.5l0,0Zm-.57.65h0Zm-.21,0ZM3,11H3Zm.49.12h0Zm1.58.13Zm1.09-.17Zm4.52-.48ZM9.81,9.38s0,0,0,0h0ZM8.64,9.22Zm-.16.06Zm-1,0h0Zm-.58.11Zm-3.2-.07h0Zm-1.3.4Zm.65.72Zm.39.67-.07,0h0Zm3.76,0Zm1.93.11ZM10.74,10h0ZM8.28,9.28h0s0,0-.07,0A.12.12,0,0,0,8.28,9.28Zm-1.88,0ZM5,9.29ZM3,9.34H3Zm-.89.39h0Zm.15,0Zm.9.69Zm2.13.83h0Zm1.27,0h0Z" transform="translate(68.22 52.72)"/><path class="cls-9" d="M9.8,10.82Z" transform="translate(68.22 52.72)"/><path class="cls-10" d="M2.9,14.11l.12,0s0,0,.06,0,0,0,0,0A.22.22,0,0,0,2.9,14.11Z" transform="translate(68.22 52.72)"/><path class="cls-10" d="M4.69,14.14s.09,0,.16,0S4.83,14.14,4.69,14.14Z" transform="translate(68.22 52.72)"/><path class="cls-10" d="M4.28,14.17a.15.15,0,0,0,.09,0h.07s-.07,0-.12,0S4.25,14.15,4.28,14.17Z" transform="translate(68.22 52.72)"/><path class="cls-10" d="M6.21,14.15h0Z" transform="translate(68.22 52.72)"/><path class="cls-10" d="M10.84,12.6s0,0-.1,0,0,0,0,0S10.84,12.6,10.84,12.6Z" transform="translate(68.22 52.72)"/><path class="cls-10" d="M10.85,12h0s0,0,0,0Z" transform="translate(68.22 52.72)"/><path class="cls-10" d="M10.77,13.77v0l0,0v-.06h0s0-.05,0-.08v.07s0-.06,0-.09,0-.05,0-.08,0-.05,0-.08,0-.05,0-.07-.06-.12,0-.17,0,0,0,0v0h0c-.06-.06,0-.13-.11-.18h0s0-.08,0-.12,0-.2,0-.3l0-.08a.06.06,0,0,1,0-.07c.09,0,.11-.08,0-.12s0,.05-.07,0h0a.28.28,0,0,0-.13,0h.06s.07,0,.08,0,0,0-.08,0h0s.13,0,.1,0-.06,0-.14,0h0a1.35,1.35,0,0,0-.45,0H9.49a1.17,1.17,0,0,0-.33,0,.07.07,0,0,0-.09,0H9a1.28,1.28,0,0,0-.44,0H8.34a.49.49,0,0,0-.15,0c-.2,0-.4,0-.6,0h-.1v0s0,0,0,0a.08.08,0,0,0-.07,0v0s-.08-.05-.12,0H7.18s0,0,0,0H6.86l-.1,0v0a.61.61,0,0,0-.19,0h0c-.06,0-.13,0-.18,0h0a.93.93,0,0,0-.29,0,.45.45,0,0,0-.28,0h0v0a1.54,1.54,0,0,1-.43,0s-.11,0-.07,0h0l-.15,0s0,0,0,0H5s0,0,0,0-.07,0-.08.05h0l-.09,0s0,0-.09,0H4.32a.2.2,0,0,0-.11,0s0,0,0,0a1.64,1.64,0,0,0-.22,0H3.94a.92.92,0,0,0-.41,0l-.15,0c-.06,0-.16,0-.16,0h.09a.13.13,0,0,0-.09,0h-.1v0H3s-.09,0,.05.05H2.93a.15.15,0,0,0-.16,0s-.12,0-.11,0,.09,0,.14,0H2.65c-.18-.07-.28,0-.44,0,.06,0,.14,0,.16,0a.32.32,0,0,0-.14,0,.29.29,0,0,0,.13,0l.07,0s-.07,0-.05,0h.1s-.18,0-.08.05h0c-.1,0-.05,0-.06,0h0s-.07,0,0,0,.12,0,.2,0-.09,0-.15,0-.1,0-.09,0,0,0,.1,0h.06s.09,0,.13,0h0a.44.44,0,0,0-.24.06s-.06,0,0,0l.09,0,.08,0h-.1s0,0,0,0c-.11.05.05.06.09.07s.15,0,0,.08,0,0,.06,0h0s0,0,0,0-.14,0-.21,0l-.14,0s.08,0,.11.05.09,0,.12,0H2.27s0-.06-.11,0a.61.61,0,0,1-.18.11c.09,0,.14,0,.17,0s.13,0,.07.07h0l-.15.05c-.05,0-.05,0,0,0s.06,0,.09,0a.16.16,0,0,1,.12,0s0,0,0,0,.09,0,.13,0,0,0,0,0v-.06s0,.06,0,.09-.08,0,0,.07,0,.09,0,.13H2.22l.09,0s.07,0,.07,0,0,0-.07,0a.3.3,0,0,0-.16,0H2.3c.09,0,.13,0,.13,0s0,0,.09,0a2.33,2.33,0,0,0,.28.05.65.65,0,0,0,.2,0h.09l0,0c.08,0,.1,0,.16,0s0,0,0,0,0,0,0,0,.06,0,.09,0h2.7s0,0,0,0h1.6a1.69,1.69,0,0,0,.23,0h.62c.34,0,.67,0,1,0h.16c.23,0,.46,0,.69,0v0l.08,0,0,0,0,0,0-.09h0l.1,0C10.87,13.86,10.9,13.82,10.77,13.77Zm-7.6-1.49h0Zm5,0h0Zm-.06,0h0Zm1.6.45Zm0,.15h0Zm-1.7.7H8ZM9.61,13ZM9,12.64H9Zm-2.44.24s0,0,0,0h0A0,0,0,0,1,6.6,12.88Zm-1.15.22h0l.07,0S5.49,13.09,5.45,13.1ZM7.83,13h0s0,0,0,0h0Zm.55.15ZM8,13Zm.15,0Zm-.47,0Zm0,.12Zm.2.09Zm.27.12h0Zm-2.85-.56h0Zm-.15.1H5.06l.07,0Zm1.48-.09h0Zm-.43.11h0Zm.25-.32Zm-.82.51ZM5.49,13a.41.41,0,0,1-.15,0h.15Zm.27-.27h0Zm1.36,0h0ZM4.24,13h0s0,0,0,0Zm-.16-.33h0Zm0-.08h0Zm1.74.61v0h0ZM5.77,13h0ZM9,13ZM6.8,12.4Zm-2.43.36-.1,0h0Zm1.32.5h0Zm3.47-.52h0Zm.19-.06h0Zm-.3,0a.32.32,0,0,0,.16,0h0A.76.76,0,0,1,9.05,12.64ZM5,12.32H5Zm4.66.8Zm-.27-.4Zm-6.26.56Zm5.25.41h0Zm.38,0Zm.45-.05h0Zm.34-.85h0Zm-6-.3h0Zm.34,1h0Zm1.7.07h0Zm.87-.29Zm3.17-.64h0a.4.4,0,0,0,.11,0H9.66Zm-6.92.9Zm.44-.2Zm.45.35h0Zm4.12,0h0ZM9,13.77H9a1.18,1.18,0,0,0,.21,0h0A.5.5,0,0,0,9,13.77ZM10,13s-.09,0-.11,0h0l.1,0Zm.09-.33h0Zm-1-.23ZM5.76,12.1h0Zm-.69,0ZM3,12.66H3s0,0,0,0S3,12.65,3,12.66Zm-.26,1h0Zm4.82.15h0ZM9.33,14Zm.76-.49h0Zm-2.78-1.3h0Zm-.73,0Zm-2.2-.08Zm-.19,0h0s0,0,0,0Zm-.16,0ZM3,13.55H3S3,13.54,3,13.55ZM9.38,14h0Zm.16,0s0,0,0,0h0ZM9,12.22Zm-.45.09ZM6,12.13Zm-1.8,0h0ZM2.74,14h0Zm.63.09h0S3.37,14.05,3.37,14.05Zm.5-.15v0h0Zm.58,0Zm6-1.46h0Zm-.14-.2h0Zm-1.63,0h0Zm0-.13Zm-5.42.11h0Zm-.53.42ZM6,13.93a.12.12,0,0,1,.1,0H6Zm4.7-.22ZM7.78,12Zm-1.23,0Zm-.34,0Zm-2.55.09ZM3,12.25H3Zm-.46.92Zm.65.92h0Zm4.59,0h0Zm2.72-.19Z" transform="translate(68.22 52.72)"/><path class="cls-10" d="M2.09,14.07H2c.09,0,.06,0,.14,0h0S2.13,14.08,2.09,14.07Z" transform="translate(68.22 52.72)"/><path class="cls-10" d="M10.94,13.27a.17.17,0,0,0-.1,0c-.14,0,0,0,0,.05s.08.07,0,.11h0a.06.06,0,0,0,0,0s0-.05.08-.06S11,13.29,10.94,13.27Z" transform="translate(68.22 52.72)"/><path class="cls-10" d="M10.79,13.46s0,0,0,0,0,0,0,0l.06,0S10.82,13.46,10.79,13.46Z" transform="translate(68.22 52.72)"/><path class="cls-10" d="M11,13.48h0s0,0,0,0h0Z" transform="translate(68.22 52.72)"/><path class="cls-10" d="M2.48,12s0,0,0,0l-.06,0h0S2.48,12,2.48,12Z" transform="translate(68.22 52.72)"/><path class="cls-10" d="M2.92,12.18H3S3,12.17,2.92,12.18Z" transform="translate(68.22 52.72)"/><path class="cls-10" d="M3.24,12.09s0,0-.06,0H3.12s-.06,0,0,0S3.18,12.08,3.24,12.09Z" transform="translate(68.22 52.72)"/><path class="cls-11" d="M12.29,22.31s.06-.06,0-.1a2.07,2.07,0,0,0-.48-.16l-.15,0L11.44,22l-.18,0H11.2l-.12,0H11a1.79,1.79,0,0,0-.33,0,1.48,1.48,0,0,0-.3,0h-.22l0,0h0s0,0,0,0,.09-.12,0-.18-.09-.06-.26-.05h0c0-.06-.19-.07-.29-.1h0a2.81,2.81,0,0,0-.29,0c-.05,0-.16,0-.26,0s-.18,0-.26,0H8.16a3.23,3.23,0,0,0-.44,0s-.07,0-.14,0a2,2,0,0,0-.49,0c-.11,0-.26,0-.26.05H6.76l-.19,0H6.31s-.17,0-.14,0v0a2.73,2.73,0,0,0-.41,0h0a.16.16,0,0,0-.12,0c-.25,0-.49,0-.73.05H4.77l-.11,0-.22,0H4.32a1.46,1.46,0,0,0-.22,0H4a4.2,4.2,0,0,0-.51.05H3.33c-.06,0-.08,0-.15,0H3.11c-.08,0-.14,0-.08.05H2.85A3.06,3.06,0,0,0,2.4,22a1.36,1.36,0,0,0-.33.06A1.65,1.65,0,0,0,2.44,22c.05,0,.05,0,.07.05l-.18,0s-.1,0-.13,0H2.08c-.14,0-.07.05-.16.06s-.11,0-.12,0-.09.06-.2.07H1.49l-.15,0c-.05,0-.14,0-.17,0,.13,0,.26,0,.38,0h0s-.11,0-.14.06a.23.23,0,0,0-.11,0l-.15,0h0a.56.56,0,0,0-.21,0,.74.74,0,0,0,.18,0h0s.09,0,0,0l-.12,0-.28,0,.21,0a.15.15,0,0,1,.07,0s-.05,0-.07,0,0,0,0,0h0a.77.77,0,0,0-.27,0h.94c-.12,0,0,0,0,0a1.28,1.28,0,0,0-.27,0c.13,0,.25,0,.3,0h0a.34.34,0,0,0-.16,0s.06,0,.09,0h0l0,0h-.1c-.09,0-.17,0-.26,0s-.1,0-.1,0h.06c.16,0,.32,0,.48,0H1.7l-.51.05L1,22.9h.22l.44,0s0,0,0,0H1.54c.06,0,.13,0,.16,0l-.25,0h0a1.53,1.53,0,0,0,.37,0h0s.18,0,0,.05a1.57,1.57,0,0,0,.27,0h.08l-.08,0a1.46,1.46,0,0,0-.22,0H1.78c0,.06-.18,0-.25,0s.18,0,.25.05-.11,0-.11,0h0l-.11,0c-.11,0-.13,0-.08,0h0l-.41,0c.12,0,.25,0,.37,0h.07s0,0,.08,0h.26c.11,0,.22,0,.33,0h0s-.06,0-.07,0a.14.14,0,0,0,.11,0l.22,0h0l-.11,0H2.07c-.16,0-.16,0-.14,0a.93.93,0,0,0,.29,0l.15,0s0,0,0,0a2.23,2.23,0,0,0-.37,0c.05,0,.14,0,.19,0l0,0H1.91a.25.25,0,0,0,.12,0,.6.6,0,0,1,.19,0s-.12,0,0,0h.67a1,1,0,0,0,.18,0l.34,0h.18a.59.59,0,0,0,.19,0H4a1.11,1.11,0,0,0,.26,0c.14,0,.28,0,.41,0h.74c.11,0,.23,0,.33,0H5.9a.61.61,0,0,0,.19,0h.26c.11,0,.22,0,.33,0H7c.09,0,.18,0,.27,0h3.39a2.26,2.26,0,0,0,.26,0,2.83,2.83,0,0,0,.59,0h.08l.14,0a.23.23,0,0,0,.11,0c.14,0,.13-.07.15-.11s0-.14,0-.21h0s0-.07-.07-.1h0s0,0,0-.05,0,0,0-.06l-.26-.07-.07,0h-.07l-.11,0h0s.09,0,.11-.07h.08a3.2,3.2,0,0,0,.44,0,.34.34,0,0,1,.15,0h0c.07,0,.07,0,.07,0v0s0,0,0,0C12.37,22.48,12.32,22.4,12.29,22.31ZM6.34,23.49h0Zm-2.28.09Zm-1.58,0H2.7a.54.54,0,0,0-.22,0Zm.06,0Zm4.4-.12Zm-4.2-.06h0Zm8.74-.28Zm-9,.12h0Zm.3-.11h0Zm2.61-1.19h0Zm2.91-.22ZM9.62,22Zm1.47.16h0ZM9,23.26ZM3.58,22.12h0Zm4.81-.31Zm-1.49,0h0ZM4,23.09Zm6.31-.25ZM5.4,22.36h0ZM6.76,22h0Zm-3.21.49h0Zm2.91-.39Zm-1.12.55h0Zm2.49-.21h0Zm-.7-.08s0,0,0,0,0,0,0,0S7.12,22.35,7.13,22.34Zm-.63,0h0Zm.63-.15h0ZM6,22.65H5.9A.11.11,0,0,0,6,22.65Zm1.74,0Zm-.89-.45s0,0,0,0Zm-.5.07h0Zm-.59.58h0s0,0,0,0S5.73,22.83,5.74,22.83Zm1.81-.65h0ZM7,22.07Zm-.66.7Zm.15,0ZM7.78,22Zm-4.14.77h0Zm2.47.11h0Zm0,0h0Zm1.39.05Zm.08,0h0s0,0,0,0h0ZM10,22.7Zm-1.45-.35ZM6.76,22s0,0,0,0h0l0,0Zm-1.08.4h0ZM5,22.48H5l-.07,0h0Zm-1,.37h0Zm1.81.1a.2.2,0,0,1-.11,0h0A.38.38,0,0,0,5.74,23Zm1.47-.06Zm.25-.17Zm1.11-.46h0Zm-.63-.34Zm-1-.08Zm-.08.07Zm-3.48.6Zm-.43.25Zm.44.1h0Zm6.26,0h0Zm-.46-.7Zm-.3,0ZM8.5,22.1h0Zm-1.59-.26h0ZM6.24,22s0,0,0,0h0Zm-.11,0Zm-.07,0Zm-2.32.26Zm0,.67h0Zm2.43.18Zm1.48,0h0Zm.33,0Zm1.66-.86ZM8.2,21.93Zm-2.39.16Zm-1.08.12h0Zm-.94.91h0ZM4.05,23Zm.57,0h0Zm1.9.05h0Zm1.82.16Zm.87-.27a0,0,0,0,0,0,0h0ZM7.35,21.77h0Zm-.19-.08Zm-1.41.21h0Zm-.62.21Zm-1-.13h0Zm-1.56.32Zm4,.8Zm1.36.12ZM9.72,23h0ZM7.46,21.76Zm-.22,0ZM3,22.32H3Zm2.17.77Zm.7.18h0Zm1.92,0h0Zm3.27.05h0Zm.11-1.06h0Zm-3.6-.58Zm-1.07,0h0ZM5.39,22Zm-.3,0h0Zm-1-.2h0ZM2.81,23.28h0Zm7.88.06h0Zm.43,0h0ZM11,22.08h0Zm-1,0h0Zm-1.49-.32Zm-3,0h0Zm-.41,0Zm.12.06h0ZM3.41,22ZM3,22.18Zm.3,1.29Zm.27-.08Zm5.85,0h0Zm.11,0h0ZM7.27,21.54h0Zm-1.62.17Zm-1.25.16ZM2.37,23Zm.32.27h0Zm1.3.3H4Zm.74-.05h0Zm6.63-.59Zm-.94-1h0Zm-1.14-.37,0,0h0S9.28,21.55,9.28,21.56Zm-1.38,0h0ZM1.48,22.6h0Zm-.07.2ZM2.3,23h0v0h0s0,0,0,0Zm.1.49h0Zm.42,0h0Zm.54.15Zm.53,0Zm4.43-.09h0Zm1.68,0Zm.77.07h0Zm.53-.05Zm.51-.51Zm-.34-.33h0Z" transform="translate(68.22 52.72)"/><path class="cls-11" d="M3.51,21.77l.26,0a.72.72,0,0,0-.26,0,1.06,1.06,0,0,0-.26,0,2.25,2.25,0,0,0-.4.06l.4-.05A2.11,2.11,0,0,0,3.51,21.77Z" transform="translate(68.22 52.72)"/><path class="cls-11" d="M6,21.56H5.89s0,0,0,0,0,0,0,0S6,21.57,6,21.56Z" transform="translate(68.22 52.72)"/><path class="cls-11" d="M4.33,21.69H4.25Z" transform="translate(68.22 52.72)"/><path class="cls-11" d="M4.66,21.69l.11,0C4.68,21.63,4.69,21.68,4.66,21.69Z" transform="translate(68.22 52.72)"/><rect class="cls-11" x="71.21" y="75.05"/><path class="cls-12" d="M23.77,7.12s0,0,0,0h0s.06,0,.05,0l-.05-.07s0-.09-.12-.12a.52.52,0,0,0-.27-.09l-.09,0v0l.17,0c.08,0,0,0,0,0h0c.11,0,.1-.09.15-.13h-.06v0s.11,0,.05,0,0,0,0,0,0,0-.17,0c.07,0-.13,0-.08-.06s-.06,0-.09,0,.09,0,.09,0l.09,0c.14,0,0,0,0,0s.11,0,0,0H23l0,0a.37.37,0,0,0-.16-.09A2.49,2.49,0,0,0,22.46,6a1.42,1.42,0,0,1-.24,0,.8.8,0,0,0-.24,0h-.05a2.75,2.75,0,0,0-.44-.06c-.32,0-.61-.09-1-.1a6.06,6.06,0,0,0-.62,0c-.07,0-.07,0-.08,0s-.08-.05-.14,0h-.31c-.2,0-.4,0-.61,0s-.13,0-.21,0a2.35,2.35,0,0,0-.53,0h-.09c-.29,0-.57,0-.86,0h-.23l-.35,0h-.22l-.43,0a.39.39,0,0,1-.16,0,.31.31,0,0,0-.11,0c-.07,0,0,0,0,0l-.35,0s-.1,0-.18,0h0a.7.7,0,0,0-.27,0l.27,0,.05,0c-.36,0-.67.07-1,.1H13.9s0,0,0,0l-.16,0c-.19,0-.25,0-.19,0h-.12c-.08,0-.21,0-.05,0h0a.85.85,0,0,0-.19.06c-.05,0-.15,0-.14,0h.11l0,0-.14,0-.23.07.2,0h0l0,0c-.09,0-.25,0-.3,0s-.11,0-.06,0a.23.23,0,0,0,.14,0h0l.22,0h.05s.09,0,0,0-.13,0-.15,0h0s-.09,0,0,0a.54.54,0,0,0,.18,0h0l.13,0h0c-.11,0-.2,0-.05.06l.09,0h0l-.22,0c-.14,0,0,0,0,.05s-.12,0-.09,0a.22.22,0,0,0,.14,0l.08,0h0c.22,0,.46,0,.67,0h0c-.06,0-.19,0-.14,0s.05,0,.14,0h.07c.2,0,.26.08.46.08a1.35,1.35,0,0,0-.2,0c.17,0,.17,0,.29,0a.72.72,0,0,1,.27,0h0a1,1,0,0,0-.3,0h.28s-.09,0,0,0,.12,0,.18,0h.08s.13,0,.18,0,0,0-.08,0h-.15a.19.19,0,0,1-.12,0h-.12s0,0,0,0l0,0h0a1.77,1.77,0,0,1-.23,0l-.45,0h.72s-.08,0,0,0h.17l0,0,.1,0s-.08,0,0,0,.27,0,.42,0c0,0,0,0-.08,0a2.26,2.26,0,0,0-.52,0,3.77,3.77,0,0,1,.48,0h0l.09,0h.14c-.05,0-.14,0,0,0h.13a1.29,1.29,0,0,0,.55,0h0l.1,0h1.49c-.09,0-.16,0-.22,0l.09,0H18s-.06,0,0,0,.09,0,.09,0h0a5.06,5.06,0,0,0,.87,0H20.6c.11,0,.22,0,.32,0H23.2a1.06,1.06,0,0,0,.26,0c.26,0,.32-.09.3-.16S23.84,7.18,23.77,7.12Zm-6.33.4ZM15,7h0Zm1.58-1.15h0Zm-1,.07Zm2,1.39h0Zm-1.35-.09ZM22,6.79Zm-4.65.43Zm.21-.39Zm2.72-.38Zm-.74.12Zm.29-.07h0Zm-.3.13Zm-.72-.21h0Zm1,.29ZM17,6.38h0Zm1.69.25h0Zm.29.07h0Zm-1.82-.38Zm.27.28h0S17.38,6.6,17.38,6.6Zm1.44.25Zm-.26.09h0Zm2.05-.24Zm0,0ZM21,6.38Zm-4.8,0h0Zm1.16.41Zm0,0Zm1.27,0ZM17.81,7h0Zm.07,0Zm2.48-.23h0Zm-.93-.65h0Zm-.58.1h0Zm-3.12.1s-.09,0-.09,0A.14.14,0,0,0,15.73,6.31Zm-.38,0h0Zm1.38.34h0Zm.28,0h0Zm.58.16Zm2.83,0h0Zm.81-.53h0Zm-.35-.11Zm-.83,0h0Zm-2,.73ZM19.26,7h0Zm-1.82-.87h0Zm-1.33.12h0Zm-1.57.35Zm1.74.12Zm1,.12Zm4.12.27Zm.88-.71ZM17,6.13h0Zm-1.72.06h0a.38.38,0,0,0-.15,0h.15Zm.2.4h0ZM16.58,7Zm-.48.25ZM21.24,7ZM22,6.31h0Zm-.73-.17ZM20.44,6Zm-.86,0h0Zm-1.16.16Zm-.61,0h0Zm-1,.81h0Zm-.56.21h0Zm5.31.21h0Zm.59-.56h0Zm.17-.46h0Zm-.32,0h0Zm-7.5-.08,0,0,.13,0Zm1.41,1Zm7.14.11h0s.05,0,.06,0Zm-.95-1Zm-8.25.34h0Zm8.6.28Zm-8.3-.79h0Zm-.74.47s0,0,0,0Zm3.56.9Zm6.24-.8ZM16,5.9h0Zm-.65,0ZM15.05,7Zm.26.28Zm2,.2Zm6.35-.42Zm-.4-.17Zm-.29,0h0Zm-6.16.73Zm.58,0h0Zm3.46,0h0Z" transform="translate(68.22 52.72)"/><path class="cls-12" d="M14.28,5.93a.73.73,0,0,0,.22,0A.34.34,0,0,0,14.28,5.93Z" transform="translate(68.22 52.72)"/><path class="cls-12" d="M23.48,6.42s0,0,0,0h0Z" transform="translate(68.22 52.72)"/><path class="cls-13" d="M-68.19-43.71-67.8-40a.15.15,0,0,0,0,.23c-.18.41-.44.83.46,1.19l.59,1.18c-.6,1.43.48,2.74,2.08,4a3.4,3.4,0,0,0,1.61.75h0a10.4,10.4,0,0,0,3.93,1.52l.67.19a20.31,20.31,0,0,0,4.61.79,41.13,41.13,0,0,0,7,.6,6.47,6.47,0,0,1,2.74.11,34.64,34.64,0,0,0,6.46.29c2,0,4,.09,6.05.08.77,0,1.58-.09,2.34-.05L-19.2-29l9.31,0a23.15,23.15,0,0,0,4.25-.06C-1.07-29,3.49-29,8-29.16l5.84,0a29.87,29.87,0,0,0,4.83-.09h2.71l1.2,0a8,8,0,0,1,1.39,0,53.4,53.4,0,0,1,6.07,0,14.22,14.22,0,0,0,3.07-.1h2.77a26.5,26.5,0,0,0,4.72-.09,61.34,61.34,0,0,0,6.92-.08c5.23.13,10.41-.09,15.61-.2a26.48,26.48,0,0,0,4.37-.08L63.3-30h0a20.59,20.59,0,0,0,4.23.12c2.43,0,4.86.06,7.24-.14,2.19-.05,4.4,0,6.51-.29l1.07,0,2.29-.16a4.27,4.27,0,0,0,1.91-.14L90-31.07a11.39,11.39,0,0,0,2.85-.24c1.37-.16,2.87-.22,3.56-.84h0c2.89.16,4.11-.45,3.61-1.78l4.06-.61a4.34,4.34,0,0,0,.53-.05,16.47,16.47,0,0,0,4.1-.1c.59-.05.56-.15.11-.28h0l-1.27-1.15c.07-.17-.69-.36.06-.51.58,0,1.58.17,1.39-.22S107.73-37,107-37l-.59-.27,4.65-.86c1.74,0,3.06-.32,3.61-1,.5-.23,1.78-.11,1.78-.43s-.6-.66-1.71-.38c-1.4-.77-1.7-1.38,1-1.78.83-.13,1.79-.38,1.85-.86h0c.55-.07.69-.25.75-.46,1-.81-.5-.34-1.08-.36s-1.14.21-1.4-.13c0,0,.5-.18.77-.27,2.66-.56-1.16-.38-.55-.71h0c.69,0,1.55-.05.59-.45l1.27-.34c-.94-.29-.56-1.06-2.34-1.05l-.14,0,.09,0,0,.08,1.87-.19c.66-.08,1.55.13,2.08-.29l-2.71-.23c-.2-.37.67-.46,1.08-.67a22.34,22.34,0,0,0-4.47-.39c.45-.52,2.78,0,2.77-.8-1.38-.3-1.81-1.23-4-1l-1.73,0c-1.13-.65-1.89-1.53-4.56-1.23h0a14.81,14.81,0,0,0-2.83-.1c-1.89-.27-3.85-.31-5.79-.39l-4.07-.1c-3.16-.43-6.45-.23-9.64-.45a6.31,6.31,0,0,0-3.82.63l-.23,0-.22,0-.61-.23c0-.3.16-.68-1.16-.54l-6.31-.07-2.91-.06a1.26,1.26,0,0,0-1.18,0l-10.43,0-12.12,0c-10.84.06-21.71-.11-32.51.28h0a19.33,19.33,0,0,0-3.5.12,39.81,39.81,0,0,0-6.37,0H2l-.26,0c-4.29-.13-8.52.11-12.77.22-3.56,0-7,.19-10.51.44-3.71,0-7.34.29-11,.55-1.32.19-2.85,0-4.09.32a78.11,78.11,0,0,0-11.65.92h0a2,2,0,0,0-1.19.19,15,15,0,0,0-4,.45l-2.39.35-1.74.25A4.37,4.37,0,0,0-60-48a11.57,11.57,0,0,0-3.4,1c-.51.06-.55.24-.65.41-2.83.06-3.65.77-3.45,1.79l-.06.24C-68.45-44.4-68.17-44-68.19-43.71ZM103.1-36.92s0,0,0,0,0,0,0,0ZM-11.62-29.25c0-.08,0-.16,0-.23h.09c-.1.07-.16.14-.09.23Zm-30.95-18.6c0,.07-.11,0-.12.1l-.16,0A1.51,1.51,0,0,1-42.57-47.85Zm137-1.2.14,0h-.25S94.36-49,94.38-49ZM91.2-33.65h0Zm-141-9.4A1.13,1.13,0,0,1-50-43.2l.26.05A.07.07,0,0,1-49.76-43Zm21.21,9.87c.05,0-.09,0-.19,0l-.15,0c.05,0,.11,0,.17,0C-28.31-33.15-28.72-33.32-28.55-33.18Zm-15.56-9.58H-44l-.06,0Zm68.3,6.64h0c0,.07.14.13.23.19h0A.77.77,0,0,0,24.19-36.12Zm-62-1.86h0a0,0,0,0,1,0,0Zm79.3.42-.06,0,.22,0S41.51-37.56,41.46-37.56Zm-39-5.59s0,0-.05,0a.1.1,0,0,0,0,0h0S2.42-43.16,2.45-43.15Zm25.89,2.82Zm-46.6-3.78a3,3,0,0,0,.31,0l-.49.14C-18.29-44-18.34-44-18.26-44.11Zm37.19,3.42-.09,0s0-.05.06-.07S18.94-40.73,18.93-40.69Zm-32.4,2.1-.15,0s.1,0,.15,0Zm-1.84-.75h0c.07,0,.19,0,.23,0h0A1.64,1.64,0,0,0-15.31-39.34Zm-1.54-3.51,0-.06.07,0Zm-2.07-.32h0c.38,0,.78,0,1.16,0A3.23,3.23,0,0,0-18.92-43.17ZM-8-43.9h0a2.11,2.11,0,0,0,.36,0A2.41,2.41,0,0,1-8-43.9Zm-32,2.62.13-.07s0,.05,0,.08Zm68.35,1h0Zm12.44-3.93h-.06v0h.05S40.76-44.28,40.78-44.26Zm-25.66.91s-.09,0-.15,0c-.27.08,0-.06.16,0C15.13-43.37,15.12-43.36,15.12-43.35Zm-44.62.43h.34a.78.78,0,0,0-.34,0ZM42-44.8v0h0Zm-21.68.57h0Zm-55.95,6.4v0l-.1,0Zm3.3.06s0-.07,0-.1l.16,0C-32.25-37.81-32.26-37.78-32.35-37.77Zm38.53.49ZM34.48-36h0l.19,0-.1,0S34.48-36,34.48-36ZM11.15-44.18l.14-.07s0,0,0,.07Zm.95-.44.29-.14c.18,0,.23,0,.42,0C12.46-44.69,12.35-44.65,12.1-44.62Zm-35,9.3Zm79.72.06.23,0ZM-3.52-46.91h0c.12,0,.38,0,.34-.12h0ZM-39.9-44.55h0Zm17.48,10.62c0,.1-.14.16,0,.28l-.45-.06A1.59,1.59,0,0,0-22.42-33.93Zm9.82,3.36c-.33-.12-.7-.19-1.05-.28A7.64,7.64,0,0,1-12.6-30.57Zm25.57-4h0Zm1.89,2.82c-.1-.12-.11-.21.06-.28A.38.38,0,0,0,14.86-31.77Zm-1.86-3h0Zm30.66-12,0,0,.15,0Zm-1.82-1.91s-.1,0-.14-.06l.17,0S41.86-48.78,41.84-48.77ZM25.21-47.16a0,0,0,0,0,0,0h0Zm-69.05,3.52s-.11,0-.14,0,0,0-.06,0Zm-18.16,1Zm12.61,3.5s0,0,0,0h0A0,0,0,0,1-49.39-39.13Zm83.71,7.64-.07,0h0Zm48.39-4.27a1.74,1.74,0,0,1,.47.1s.08,0,.11,0c-.26,0-.56,0-.82,0C82.54-35.72,82.65-35.69,82.71-35.76Zm6.4-1.9h0Zm-15.27-8.5-.13,0c.11-.09.1-.2.2-.29C73.93-46.36,73.78-46.27,73.84-46.16Zm-3.09-.52s-.09-.07-.09-.11l.3.11ZM54-50.18l-.12,0A.17.17,0,0,1,54-50.18ZM4.39-48.06v0s.08,0,.11,0S4.43-48,4.39-48.06Zm-37.21.55a1.86,1.86,0,0,1,.53-.11h0C-32.61-47.69-32.66-47.56-32.82-47.51ZM101.77-37.32a3.9,3.9,0,0,0,.61.18C102.08-37.19,101.7-37.22,101.77-37.32ZM99.16-49.68h0Zm-26.6-.48c.14,0,.29,0,.44.06C72.86-50.13,72.69-50.12,72.56-50.16Zm-53-.82,0,0a.22.22,0,0,1,.08,0ZM-11-50.72s-.05,0-.06,0h-.05S-11-50.71-11-50.72ZM-51.33-35.36a2.85,2.85,0,0,0-.64,0A1.41,1.41,0,0,1-51.33-35.36ZM-41.4-48.3h0ZM-53-31.39a2.16,2.16,0,0,0-.8-.75c.5,0,1,0,1.25.16A3,3,0,0,1-53-31.39ZM108.78-35l-2,0c-.07,0-.18,0-.24,0A4.4,4.4,0,0,0,108.78-35Zm-7.73-15.69a1.16,1.16,0,0,0-.35-.16h0c.25,0,.36.11.65,0C101.23-50.73,101.13-50.71,101.05-50.66Zm-114.8-.58a2.72,2.72,0,0,0-.28,0h0s.08,0,.11,0S-13.81-51.26-13.75-51.24Zm-38.63,2.71h0Z" transform="translate(68.22 52.72)"/><path class="cls-13" d="M125.8-43.71l2.54-.34c-1.35-.07-2-.16-2.45.14l-5.3.22A14.23,14.23,0,0,0,125.8-43.71Z" transform="translate(68.22 52.72)"/><path class="cls-13" d="M118-47.81h0Z" transform="translate(68.22 52.72)"/><path class="cls-13" d="M120-48.08c-1-.19-1.86-.31-2,.27C118.7-47.84,119.63-47.61,120-48.08Z" transform="translate(68.22 52.72)"/><path class="cls-14" d="M22,8.91s.07,0,.06,0-.15,0-.15,0S21.91,8.92,22,8.91Z" transform="translate(68.22 52.72)"/><path class="cls-14" d="M23.57,9.94s0,0,0-.06,0,0-.06-.05h0c.18-.06.11-.13.09-.2s0-.06,0-.08V9.5c.07,0,.11-.09,0-.12h0l.21-.06c-.2,0-.25,0-.26,0h0l-.31-.13s0,0-.06,0c-.23,0,0,0,0,0s-.1,0-.13,0-.05,0-.27-.06-.28,0-.37-.06,0,0,0,0H21.9c.05,0,0,0,0,0h-.51l0,0A4.51,4.51,0,0,0,21,9H20.8l-.66,0s0,0,0,0l-.18,0c-.06,0-.08,0-.16,0H19.7a1.5,1.5,0,0,1-.3,0h-.33a3.89,3.89,0,0,0-.78,0,.94.94,0,0,0-.29,0l-.08,0h-.29l-.15,0h-.1a1,1,0,0,0-.34,0h-.11s.09,0,.13,0h0s-.08,0-.1,0h-.14a1.35,1.35,0,0,0-.45,0c-.23,0-.46,0-.69,0h0l-.12,0a1.46,1.46,0,0,0-.22,0h0l-.08,0h0c-.13,0-.27,0-.41,0a.58.58,0,0,0-.14,0h-.24s0,0,0,0a3.85,3.85,0,0,1-.48,0h0a2.29,2.29,0,0,0-.37,0l-.11,0-.11,0h-.07l-.33.08s0,0,0,0V9h0c-.14,0-.15.09-.17.15s0,0,.07,0-.21.15.13.18c0,0,0,0,0,0s0,0,.05,0h0s-.09,0-.12,0,0,0,0,0,0,0,0,0-.08,0-.08,0,.06,0,.11,0l.28,0a1.34,1.34,0,0,0,.31,0l.11,0,.26,0c-.07.05-.12.11,0,.14s0,.1-.06.15h-.11s0,0,0,0,0,0,0,0c.2,0,.09,0,.11.07h0v0l.1.08c-.06,0-.15,0-.16.05a.74.74,0,0,1-.27.14s0,0,0,0l.08.08s-.08,0,0,.08h0c.06,0,0,.08.14.12a1,1,0,0,0,.47.09.55.55,0,0,0,.26,0v0s-.09,0,0,0a1.53,1.53,0,0,0,.44,0,2.85,2.85,0,0,0,.29,0h0c.1,0,.21,0,.31,0h.21a.2.2,0,0,1,.11,0h.07s0,0,0,0H16c.16,0,.33,0,.48,0h.08c.06,0,.14,0,.18,0h.71a1.88,1.88,0,0,0,.34,0h.06s0,0,0,.08c.13,0,.18-.06.3-.07a.61.61,0,0,1,.19,0s0,0,.06,0h0s0,0,.09,0,.14,0,.09,0h.15c.08,0,.19,0,.27,0s.06,0,0,0h0a2.67,2.67,0,0,1,.49,0s.11,0,.18,0l-.11,0h.7s.08,0,.11,0h-.11a2.67,2.67,0,0,0,.4,0h.63l.44,0c.1,0,.2,0,.3,0h.07L22,11h0a.37.37,0,0,0,.29,0h.57a1.58,1.58,0,0,0,.31,0h.05v0s.08,0,0,0a1,1,0,0,0,.33-.06c.14,0,.07-.09.07-.14s0,0,0-.06H23.6v0h0v0c.09,0,0,0,0,0h-.08s0-.06,0-.09,0,0,0,0,0-.08,0-.11.19-.05.18-.1h0v0h0l0,0C23.64,10.08,23.64,10,23.57,9.94ZM22.21,9h0Zm-1.62,1.72h0ZM12.92,9.23Zm10.22,0h0Zm-6.47,1.46h0Zm3.68,0Zm-.91.09ZM14.63,9.09h0Zm4.28,0h0Zm1.2,1.23h0Zm-5.86-1h0Zm.23,0h0Zm.44,1.05Zm3.7-1Zm1.63.06Zm2.27.19Zm-.35.06h0Zm-3.33.17h0Zm-.33-.06h0Zm0,.22h.1l-.1,0Zm-.75-.25h0Zm.34.1h0Zm2.64-.26h0Zm.47.21h0ZM19,9.57h0a.82.82,0,0,0,.21,0A.49.49,0,0,1,19,9.57Zm-2.2-.06h0Zm-1,.37Zm1,.09h0Zm1.53,0h0Zm-2-.45a.38.38,0,0,1,.15,0s0,0,0,0h0a.29.29,0,0,0-.16,0Zm-1,.7ZM19.66,10h0Zm.05-.58h-.13c.05,0,.08,0,.12,0Zm-2.43.64h0ZM21.41,10h0ZM17.63,9.4l0,0,0,0ZM15,9.33Zm7.09.23ZM20.4,9.34h0Zm-.91-.06h0Zm-4.26.11h0Zm-.68,0s0,0,0,0Zm4,1.15h0Zm.46-.3h0Zm.88-.09Zm2.43.1Zm-.69-.95h0Zm-.9-.08Zm-6.09,0h0Zm-.8.07h0Zm.18,0Zm.14,1.11Zm.57.13h0Zm2.22-.09h0Zm1.91.24Zm3.75-1.42h0ZM21,9.26h0l0,0h0Zm-.42-.17Zm-2.68.15h0Zm-.23,0Zm-3.1-.08Zm.83,1.5h0Zm4.13-.06Zm0,.2h0Zm1.18-.58h0Zm.19.45,0,0h0ZM22,10.36h0Zm1.1-.51h0ZM23,9.22Zm-2,0Zm-7,1.16h0Zm1.16.44h0Zm5.16,0h0Zm.93-.18h0Zm.64-.11h0Zm1.24.34h0ZM23,10.16h0l.06,0Zm-.45-.83Zm-2.83-.2h0ZM18.82,9h0Zm-.5-.08h0Zm-.47.16Zm-.36.09h0ZM13.91,9Zm-.47.38h0Zm4.37,1.44h0Zm.85.11h0S18.67,10.94,18.66,10.94Zm.15,0Zm1.84-.09Zm2.63-.31h0ZM23,10.09Zm-.71-1Zm-2.6.08h0ZM16.34,8.9Zm-1,.19h0Zm0-.15Zm-.09,0h0Zm-2.33.33Zm.69.21Zm.48.61h0Zm.66.8Zm1.92,0Zm6.63-.21h0ZM19.82,9a.1.1,0,0,0-.06,0Zm-.16,0ZM14.8,8.88h0Zm-1.12-.09ZM12.92,9Zm.21.42Zm3.09,1.53h0ZM19,11h0Z" transform="translate(68.22 52.72)"/><path class="cls-14" d="M17.55,8.78s0,0,0,0h0S17.55,8.78,17.55,8.78Z" transform="translate(68.22 52.72)"/><path class="cls-14" d="M13.32,10.2s.06,0,0,0-.12,0-.2,0S13.23,10.2,13.32,10.2Z" transform="translate(68.22 52.72)"/><path class="cls-14" d="M13.65,10.05c-.07,0-.06,0-.11-.05S13.51,10.06,13.65,10.05Z" transform="translate(68.22 52.72)"/><path class="cls-14" d="M13.43,10.65l.05,0h0a.06.06,0,0,0,0,0Z" transform="translate(68.22 52.72)"/><path class="cls-14" d="M20.34,11.05c.07,0,.13,0,.15,0h0A.2.2,0,0,0,20.34,11.05Z" transform="translate(68.22 52.72)"/><path class="cls-14" d="M20.76,11a.32.32,0,0,0,.14,0s0,0,0,0S20.81,11,20.76,11Z" transform="translate(68.22 52.72)"/><path class="cls-14" d="M21.19,11s0,0,0,0l0,0h-.06S21.19,11,21.19,11Z" transform="translate(68.22 52.72)"/><path class="cls-14" d="M21,11h0a.07.07,0,0,0,.06,0H21Z" transform="translate(68.22 52.72)"/><path class="cls-14" d="M20.54,11.06s.08,0,.07,0S20.55,11.05,20.54,11.06Z" transform="translate(68.22 52.72)"/><path class="cls-14" d="M15.6,11a.32.32,0,0,0-.16,0S15.54,11,15.6,11Z" transform="translate(68.22 52.72)"/><path class="cls-14" d="M17.63,11.07c.05,0,.11-.05.15,0s.09,0,.14,0-.08,0-.11,0S17.68,11,17.63,11.07Z" transform="translate(68.22 52.72)"/><path class="cls-15" d="M16.51,14.31h-.08s0,0,0,0a.07.07,0,0,0,.06,0s.07,0,.06,0,0,0,.09.05-.07,0,0,0,.06,0,0,0S16.61,14.31,16.51,14.31Z" transform="translate(68.22 52.72)"/><path class="cls-15" d="M16,14.34h-.07c-.12,0-.17,0-.21.06a.4.4,0,0,1,.24,0s.16,0,.16,0S16,14.35,16,14.34Z" transform="translate(68.22 52.72)"/><path class="cls-15" d="M16.89,14.36a.32.32,0,0,0,.17,0c.06,0,.17,0,.12,0A.9.9,0,0,0,16.89,14.36Z" transform="translate(68.22 52.72)"/><path class="cls-15" d="M16.83,14.32c-.06,0,0,0-.06.07l0,0h.05a.08.08,0,0,0,0,0l0,0Z" transform="translate(68.22 52.72)"/><path class="cls-15" d="M16.22,14.32a.21.21,0,0,0,.15,0,0,0,0,0,0,0,0S16.27,14.33,16.22,14.32Z" transform="translate(68.22 52.72)"/><path class="cls-15" d="M15.85,14.39s.07,0,.16,0c-.06,0-.05,0-.12,0Z" transform="translate(68.22 52.72)"/><path class="cls-15" d="M16.94,14.42s0,0,.09,0h0S17,14.42,16.94,14.42Z" transform="translate(68.22 52.72)"/><path class="cls-15" d="M17.24,14.42s.06,0,.1,0,0,0,0,0h-.1S17.21,14.42,17.24,14.42Z" transform="translate(68.22 52.72)"/><path class="cls-15" d="M16.22,12.11a.3.3,0,0,0,.16,0Z" transform="translate(68.22 52.72)"/><path class="cls-15" d="M15.49,14.4s0,0,.06,0l-.1,0Z" transform="translate(68.22 52.72)"/><path class="cls-15" d="M15.11,14.42c.06,0,0,0,.09,0v0Z" transform="translate(68.22 52.72)"/><path class="cls-15" d="M16.74,14.45h0Z" transform="translate(68.22 52.72)"/><path class="cls-15" d="M17.33,12.12h0s.05,0,.11,0Z" transform="translate(68.22 52.72)"/><path class="cls-15" d="M17.79,12.1h0Z" transform="translate(68.22 52.72)"/><path class="cls-15" d="M23.61,13.94a.2.2,0,0,0-.13,0,.25.25,0,0,1-.21,0H23.2a.91.91,0,0,0,.31.05l0,0s0,0,.05,0,.05,0,.05,0l0,0Z" transform="translate(68.22 52.72)"/><path class="cls-15" d="M23.3,14.24c.11,0,0-.09.22-.05C23.38,14.14,23.38,14.14,23.3,14.24Z" transform="translate(68.22 52.72)"/><path class="cls-15" d="M22.52,14.45s0,0,.05,0,.05,0,.06,0,0,0,0,0S22.53,14.43,22.52,14.45Z" transform="translate(68.22 52.72)"/><path class="cls-15" d="M23.77,13.34h0s0,0-.07-.05,0,0,0,0,.07,0,.07,0Z" transform="translate(68.22 52.72)"/><path class="cls-15" d="M23.58,13.41a.14.14,0,0,0-.11,0S23.48,13.44,23.58,13.41Z" transform="translate(68.22 52.72)"/><path class="cls-15" d="M23.56,13.31s0,0,0,0a.17.17,0,0,0,.11,0S23.61,13.3,23.56,13.31Z" transform="translate(68.22 52.72)"/><path class="cls-15" d="M23.5,13.34h0s0,0,0,0h0Z" transform="translate(68.22 52.72)"/><path class="cls-15" d="M22.78,14.44s.1,0,.16,0a.2.2,0,0,0-.14,0Z" transform="translate(68.22 52.72)"/><path class="cls-15" d="M22.89,14.41l0-.06C22.85,14.37,22.81,14.39,22.89,14.41Z" transform="translate(68.22 52.72)"/><path class="cls-15" d="M22.81,12.1h0S22.81,12.11,22.81,12.1Z" transform="translate(68.22 52.72)"/><path class="cls-15" d="M23.83,12.74a.29.29,0,0,0-.26,0c.1,0,.11,0,.2,0s0,0,0,0a.34.34,0,0,1-.14,0,.14.14,0,0,0-.15,0,.15.15,0,0,1-.09,0l0,0c.13,0,.06-.09.21-.1h-.25v0l.07-.06c-.06,0-.14,0-.18-.08s0,0,0,0a1.23,1.23,0,0,0-.2-.1l-.11,0-.13,0h0l-.15,0a1.08,1.08,0,0,0-.19,0h-.23a2.52,2.52,0,0,0-.48,0H20.8c-.15,0-.31,0-.46,0h-.59s0,0,0,0a.52.52,0,0,0-.26,0h-.93c-.14,0-.29,0-.43,0h-.26a.42.42,0,0,0-.14,0,2.91,2.91,0,0,1-.42,0h-3c-.1,0-.21,0-.31,0a2.59,2.59,0,0,0-.41,0h0a1.76,1.76,0,0,0-.34,0h0l-.14,0h0c-.06,0-.14,0-.16,0l-.15,0s-.11,0-.1,0,0,0,0,.05a.13.13,0,0,0-.1,0s-.08,0-.06,0,0,0,0,.06-.08,0,0,.06v0c-.06,0,0,0,0,.06s-.05.05,0,.07.05,0,.14,0h.35a.08.08,0,0,0,.07,0h0a.3.3,0,0,0,.14,0h0s.07,0,.1,0V13s0,.09,0,.14h0v.08l0,0s.07.06,0,.09l0,0h-.1c-.08,0,0,0,.05,0a.35.35,0,0,0,.11,0h0s0,0,.1,0a.37.37,0,0,0,.14,0s.05,0,.14,0h0a.9.9,0,0,0,.24,0s0,0,0,0h0l-.45,0a1.42,1.42,0,0,0-.22.07c-.07,0-.11.08-.05.12v0s0,.05,0,.08,0,.08.07.12.07,0,.13.06a.84.84,0,0,0,.18.07h.07l.1,0c.16,0,.27.05.42.06s.08,0,.13,0h.11l.45,0a1.32,1.32,0,0,1-.34,0,.77.77,0,0,0,.41,0l-.07,0H16.4a1.31,1.31,0,0,0,.28,0h.2a2.71,2.71,0,0,1,.29,0h.2c.16,0,.2,0,.2.06l0,0c.1,0,0-.06,0-.09l.19,0c.06,0,.15,0,.19,0s-.12,0-.14,0,.27,0,.41,0a1.27,1.27,0,0,0,.2,0l.74,0a2.46,2.46,0,0,0,.54,0H22.1a6.59,6.59,0,0,1-.77,0h-.17c-.05,0-.09,0-.07,0s0,.06.06.05.11,0,.14,0,0,0,.1,0,.13,0,.12,0a.51.51,0,0,0,.4.09h.19s.11,0,.18,0a1.11,1.11,0,0,0,.37,0c.07,0,.12,0,.11,0s-.06,0-.11,0h-.09s0,0,0,0,.07-.05.05-.08h0c.08,0,.16,0,.24,0a.14.14,0,0,0,.14,0s-.05,0-.07,0,.13,0,.2,0l0,.05c.08,0,.11,0,.18,0s-.08,0-.13,0l-.07,0h0s.06,0,0-.05,0,0,0-.08l0-.06h-.07a.47.47,0,0,1,.22,0c.09,0,.13,0,.08-.05s0-.06.07-.07,0,0,0,0h0l-.06,0h.09l-.14,0s-.13,0-.1,0,.06-.05.16-.05a.85.85,0,0,0,.23,0s.08,0,.05,0-.05,0-.08,0-.11,0-.11,0,0-.07-.13,0,0,0-.06,0,0,0,0,0-.05,0,0-.05-.07-.11,0-.16,0-.14-.13-.2c0,0,.24,0,.17-.06s.19,0,.17,0l-.06,0c.07,0-.05-.08,0-.11v0s0,0,0,0,0,0,.05,0h.09l.18,0c.09,0,.07,0,.08,0Zm-9.8.74Zm4.82.75h0Zm-2.58-.12Zm6.28-1.18h0Zm.44.22ZM20.68,14Zm-6.44-.22Zm.14.15Zm0,.12h0Zm.12-.31Zm.23-.15Zm7.94,0Zm-7.85-1h0Zm.54-.06h-.07A.09.09,0,0,0,15.35,12.51Zm4.71.1h0l-.1,0a.11.11,0,0,0,.08,0Zm-5.58.51h0s0,0,0,0h0ZM15,12.7Zm.72,1.08h0Zm4.65-.88Zm-5,.73h0s0,0,0,0Zm5.48-.58h0ZM20,13Zm-3.15.58h0Zm4-.19Zm-5.42-.44h0Zm.32,0h0Zm5,.32h0Zm-1.09-.1Zm-.89.21h0Zm.07-.12Zm-1.06-.08h0Zm-1.56,0h0Zm-.07,0h0Zm.63,0s-.08,0-.1,0h0ZM18.1,13h0Zm-2.21,0Zm2.34.49h.06a.16.16,0,0,0-.07,0A0,0,0,0,1,18.23,13.45Zm1.63-.12s0,0,0,0h0l0,0Zm.13.19h0Zm-.59-.42h0Zm-.75,0h0Zm-2.06.2ZM18.91,13h0Zm-2.27-.25Zm3.5.88h0Zm-.69-.69h0Zm-2.19-.16Zm1.08.77Zm1.39,0h0Zm.95-.05Zm-.16-.47h0Zm-1.18-.12Zm-.21,0Zm-.08,0h0Zm-.88-.1.13,0Zm-.23,0Zm-2,.93h0Zm.47-.32h0Zm.18.08h0Zm.9,0Zm.36.18h0Zm3.91-.51Zm-3.23-.26h0S18.54,12.87,18.55,12.87ZM16,13.73Zm1.45,0Zm.92,0h0Zm2,0Zm.53-.76Zm-6.28-.26Zm3.73,1h.07l-.07,0Zm1.39,0h0Zm2.4-.16Zm-.86-.66Zm-2.4-.16h0Zm-3.67.84h0v0h0S15.21,13.61,15.2,13.61Zm2,.16Zm.52,0h0Zm.62.12Zm-.07.12h0Zm1.51-.13Zm2.34-.24h0Zm-2.27-1a.37.37,0,0,0,.19,0Zm-4.08-.16h0Zm-1.23.32h0Zm3.25,1.11h0Zm1,.06s0,0,0,0h0Zm.24-.13h0Zm2.89-.13h0Zm.5-.43h0Zm-.19-.37Zm-1.57-.22h0Zm-.29,0h0Zm-1.1-.07h0S19.24,12.63,19.24,12.63Zm-.45,0Zm-3.9,1Zm4.36.31h0Zm2.33-.21Zm.71-.16h0Zm-1.22-.79h0Zm-.3-.09Zm0-.08ZM18.1,12.5Zm-1.25-.08h0Zm-3,.12Zm.76.64a.48.48,0,0,1-.18,0A.34.34,0,0,0,14.61,13.18Zm.28.17Zm-.06.18h0Zm2.06.34Zm.69.14Zm1.22.05h0Zm1.11,0h0Zm3-.24h0Zm-.13-.24ZM22.3,13Zm-4.79-.6Zm-2.59.05h0Zm-1,.43h0Zm.95.63h0S14.86,13.49,14.86,13.48Zm-.95.37h0Zm.43.22Zm2.16,0h0Zm4.36,0Zm1.63-.19Zm.53-.3Zm-.16-.32Zm-.14-.67h0Zm-5.41-.22h0Zm-2.9,0ZM14,14h0Zm5.38.11h0Zm3.4-1a.22.22,0,0,1-.1,0l-.06,0A.29.29,0,0,0,22.76,13Zm-.59-.42h0Zm-1,.07h0Zm-6.78-.35Zm.24,1.19Zm.93.62h0Zm7.63-.94h0ZM22.57,13h0Zm.18,0h0Zm-6.1-.77h0Zm-3.17.69Zm.76.8Zm6.48.55h0v0h0Zm1.58,0h0Zm-5.65-2.08h0Zm-3.58.2Zm.82,1.26Zm2.21.66h0Zm6.13,0Zm.39,0h0Zm.65-1Z" transform="translate(68.22 52.72)"/><path class="cls-15" d="M23.52,12.31v0h-.06s0,0,0,0Z" transform="translate(68.22 52.72)"/><path class="cls-15" d="M18.75,14.35s0,0,.08,0l.23,0a0,0,0,0,0-.06,0A.9.9,0,0,0,18.75,14.35Z" transform="translate(68.22 52.72)"/><path class="cls-15" d="M18.85,14.41a.71.71,0,0,1,.21,0L19,14.37Z" transform="translate(68.22 52.72)"/><path class="cls-15" d="M20.32,14.37s0,0,0,0h0Z" transform="translate(68.22 52.72)"/><path class="cls-16" d="M8.94,17.13c.07,0,.07-.05.16,0s0,0,0,0S8.93,17.1,8.94,17.13Z" transform="translate(68.22 52.72)"/><path class="cls-16" d="M11.25,17.18h0Z" transform="translate(68.22 52.72)"/><path class="cls-16" d="M10.94,17h0l0,0h0Z" transform="translate(68.22 52.72)"/><path class="cls-16" d="M11.09,16.85h.08s0,0-.05,0Z" transform="translate(68.22 52.72)"/><path class="cls-16" d="M11.55,16v0h0s-.08,0,0-.08,0,0,0,0v0h0s-.12-.06-.13-.1l-.07,0V15.5l0-.09s0,0,0,0a0,0,0,0,0,0,0s-.08-.09-.2-.11a3.33,3.33,0,0,0-.39-.08h0s-.06,0-.1,0h0a1.53,1.53,0,0,0-.32-.05L10,15h0C9.6,15,9.23,15,8.87,15c-.06,0-.13,0-.18,0H8.31a2.62,2.62,0,0,0-.28,0h-.1c-.07,0-.18,0-.24,0l-.05,0H7.51c-.09,0-.13,0-.11,0H7.19l0,0h.07s-.06,0-.1,0h-.8a.83.83,0,0,0,.28,0v0H6.5c-.11,0-.24,0-.35,0s.1,0,.09,0-.06,0-.09,0h0S6.05,15,6,15H6a1.68,1.68,0,0,0-.39,0H5.53a1.18,1.18,0,0,1,.27,0h.25s-.1,0-.14,0H4a1,1,0,0,0-.18,0H4a.16.16,0,0,0-.1,0H3.3a.47.47,0,0,0-.17,0h.09s-.05,0-.09,0a3.52,3.52,0,0,0-.49.05h0a.4.4,0,0,0-.17,0,.37.37,0,0,0-.14,0,.65.65,0,0,0-.16,0s.09,0,.12,0h0l-.14,0c-.06,0-.11,0-.07,0H2a.34.34,0,0,0-.21.1H1.73l-.21,0c-.06,0-.09,0-.06,0s.06,0,.1,0,0,0,0,0,0,0,0,0h.13l-.2,0s-.1,0-.13,0l.16,0h0l0,0h-.1l-.08,0a.13.13,0,0,0,.11,0h.11l.22,0s-.14,0-.19,0l-.2,0h.2l-.17,0H1.41l.06,0h.09s.08,0,.1,0h0l-.24,0a1.76,1.76,0,0,0,.23,0h.14a.33.33,0,0,0-.14,0s.11,0,.14,0H1.52s-.09,0-.07,0a.06.06,0,0,0,.07,0H1.7s0,0,0,0H1.63l-.11,0s-.08,0-.07,0h.07l.18,0H2a2.06,2.06,0,0,0-.26,0,2.26,2.26,0,0,0,.26,0l.24,0,.14,0c.05,0,0,0,0,0s-.07,0,0,0,.06,0,.09,0h.1a3.37,3.37,0,0,0-.41.12s0,0,.07,0v0s-.12,0-.07.07,0,0,0,.05,0,.09,0,.13a.09.09,0,0,0,0,.08s.11,0,.1,0a.32.32,0,0,0,.14,0h0l-.14,0c0,.05-.14.07-.21.1s-.22.05-.15.11h0l0,0c-.05,0-.11.07,0,.1l0,0c.07,0,0,.05.05.07s0,.05,0,.08-.05,0,0,.06,0,0,0,0,.06.06.17,0h.39a4.58,4.58,0,0,0,.53,0H3a.44.44,0,0,0,.18,0,.37.37,0,0,0,.2,0s.08,0,0,0l0,0a2.54,2.54,0,0,1,.39,0h0a.19.19,0,0,0,.24,0h.07a.67.67,0,0,0,.2,0h.11l0,.05s0,0,0,0v0h.07a.88.88,0,0,0,.24,0h.48a2.06,2.06,0,0,0,.43,0H7.54s0,0,0,0h0v0c.06,0,.06,0,.11,0h0c.06,0,.09,0,.17,0h0a1.92,1.92,0,0,0,.24,0h.53A2.38,2.38,0,0,1,9,17H9.2a1.38,1.38,0,0,0,.29,0c.15,0,.31,0,.46,0h0a1,1,0,0,0,.24,0c.15,0,.3,0,.45,0l.2,0c.09,0,0-.05.11-.07h0s.05,0,.1,0-.05,0-.1,0V16.8c0-.09-.15-.18-.1-.27h0s0,0,0-.06h0l-.07,0c-.05,0-.06-.07-.14-.09s0,0-.07,0l-.11,0,0,0a2.06,2.06,0,0,0,.35,0H11a.93.93,0,0,0,.24,0c.15,0,.31,0,.32-.09l0-.09S11.6,16,11.55,16ZM10,17Zm0-1.8ZM4.1,17h0Zm-1.44-.89h0l.14,0h0l-.14,0H2.55A.41.41,0,0,0,2.66,16.15Zm.39-1.09Zm7.38.16h0ZM8,16.71ZM9,15.1Zm1.33,1.68Zm-.16,0Zm-6.49-.33h0Zm6.52.16s0,0,0,0Zm-6.39-.14h0ZM3,16.16Zm.14-.35Zm5.3.53Zm1.32-.62h0Zm-3.38.35a.4.4,0,0,0-.11,0Zm.07-.35.08,0h0l-.08,0Zm-.81.37Zm1.45-.21Zm-2.18,0s0,0,0,0h0Zm.6-.07Zm2.51,0a.37.37,0,0,0,.15,0H8Zm.14.1h0ZM8,15.75l0,0h0Zm-.5.05h0Zm-.56,0Zm-1.64,0Zm.29-.05h0Zm3.31,0Zm-.69-.1Zm.65.31h0Zm.6,0h0Zm0-.1h0Zm-.37-.14h0Zm-4.66.14Zm1.46.45h0Zm3.6-.3a.1.1,0,0,1,.08,0A.1.1,0,0,0,9.46,15.92ZM3.53,16h0Zm5,0h0Zm-5-.45h0Zm5.2.55h0Zm.92-.61h0Zm-4.83,1Zm2,0h0Zm.18.05Zm-.13-.13Zm1.74-.21h0Zm.92-.05h0a.68.68,0,0,0-.15,0Zm-1-.79h0Zm-2,.06h0Zm-2.08.05h0Zm-.77-.09h0Zm-.39.79h0S3.2,16.18,3.22,16.18Zm.63,0h0Zm.32.33Zm6.06-1.07h0Zm-.29,0h0Zm-.34,0h0Zm-.76-.17h0Zm-.46.1Zm-.45-.1h0Zm-1.27.07h0ZM6,15.4ZM3.09,16Zm1.73.76h0Zm4.53-.06Zm.87-.82,0,0h0Zm-3-.57h0Zm-.48-.05-.07,0,.07,0Zm-.52.12h0Zm-.84-.12Zm-1.24.05,0,0,0,0Zm-1-.05Zm0,.41a.1.1,0,0,0-.09,0h.09Zm1.79,1Zm1.62.12h0Zm3.18-.35h0Zm-6-1.15Zm-.82.05h0Zm-.15.28Zm2.33,1.25Zm2.64,0h0Zm.63-.31Zm.57.23H9Zm1.38,0Zm.21-.85Zm.1-.23Zm-.13-.23h0Zm-.81-.26h0Zm-3.4,0h0Zm-.34,0H6Zm-.45,0Zm-.72.1Zm-2,.43s0,0,0,0l0,0Zm.62,1ZM4.94,17h0ZM9,16.89H9Zm.75,0Zm.84-.3h0a.22.22,0,0,0,.14,0h-.12Zm-.42-.29Zm-.16-1h0Zm-2.31-.11Zm-.28,0h0s-.05,0-.06,0h.06Zm-3.05-.05h0ZM3,16.91Zm.52-.24h0ZM10.88,16h0Zm0,0Zm.29-.2h0Zm-.26-.4Zm-.58-.08h-.05s0,0,0,0Zm-2-.24Zm-1.22,0ZM5.74,15h0ZM3.79,15Zm-1.06.09h0Zm0,.93h0Zm-.89.78a0,0,0,0,1,0,0Zm1,.11h0Zm5.54-.23h0Zm1,.31Zm1.2-.8ZM7.22,15.05h0ZM5.7,15h0Zm-.8,0h0Zm-.17,0h0ZM4.1,15h0Zm-1.32.9h0Zm-.32.52Zm-.66.25h0Zm.11.35h0Zm1.39.12Zm.73,0Zm7-.26Z" transform="translate(68.22 52.72)"/><path class="cls-10" d="M8.36,2.28v.1a2.88,2.88,0,0,0,0,.32c0,.1,0,.14.06.14s.06,0,.1-.12a.74.74,0,0,0,.05-.25.46.46,0,0,0,0-.2l0,0a.12.12,0,0,1,0-.09,0,0,0,0,1,0,0h0a.11.11,0,0,1,.07,0,.19.19,0,0,1,0,.08.64.64,0,0,1,0,.2.74.74,0,0,1-.09.38c-.06.09-.12.14-.17.14s-.07,0-.09-.13a1.39,1.39,0,0,1,0-.32.89.89,0,0,1-.17.41.12.12,0,0,1-.09,0s0,0,0,0a.21.21,0,0,1,0-.06,1,1,0,0,1,0-.3.19.19,0,0,1-.1,0,0,0,0,0,1,0,0h0l.09,0A.77.77,0,0,1,8,2.16c0-.05,0-.07.09-.07s.09,0,.09.13a.46.46,0,0,1-.05.2A.18.18,0,0,1,8,2.55c0,.06,0,.11,0,.16s0,.13,0,.13,0,0,.07-.07a1.17,1.17,0,0,0,.08-.21,1.11,1.11,0,0,0,.05-.25s0,0,0,0l0,0A0,0,0,0,1,8.36,2.28Zm-.29.12a.45.45,0,0,0,0-.13V2.19s0,0,0,0,0,0-.06.12a2,2,0,0,0,0,.24A.17.17,0,0,0,8.07,2.4Z" transform="translate(68.22 52.72)"/><path class="cls-10" d="M9,2.92,9,2.9s0,0,0,0v-.1a.53.53,0,0,1-.06.13.11.11,0,0,1-.09,0,.12.12,0,0,1-.09,0,.21.21,0,0,1,0-.15.29.29,0,0,1,.06-.19.17.17,0,0,1,.16-.08A.12.12,0,0,1,9,2.5l0,0s0,0,0,0,0,0,0,0v0s0,0,0,.05a.93.93,0,0,0,0,.22s0,0,0,0l.06-.05.08-.14a.41.41,0,0,1,0-.09s0,0,0,0a.24.24,0,0,1,0,.12C9.14,2.85,9.09,2.92,9,2.92ZM8.88,2.5s-.05,0-.08,0a.2.2,0,0,0,0,.13.37.37,0,0,0,0,.12.06.06,0,0,0,.06.05s.07-.07.12-.22V2.56a.08.08,0,0,0,0,0Z" transform="translate(68.22 52.72)"/><path class="cls-10" d="M9.47,2.7c-.07.15-.13.22-.18.22s-.07,0-.08,0a.25.25,0,0,1,0-.11c0-.06,0-.16,0-.28s-.06,0-.07,0,0,0,0,0h.05l0-.19a.08.08,0,0,1,0,0s0,0,0,0,0,0,0,.05,0,.09,0,.23a.13.13,0,0,0,.08,0l0,0s0,0,0,0,0,0,0,0l-.11,0c0,.13,0,.22,0,.29s0,.05,0,.05a.12.12,0,0,0,.06-.05s.05-.09.08-.14,0-.09.05-.09a0,0,0,0,1,0,0A.41.41,0,0,1,9.47,2.7Z" transform="translate(68.22 52.72)"/><path class="cls-10" d="M9.6,2.92a.14.14,0,0,1-.12-.06.17.17,0,0,1,0-.12.34.34,0,0,1,.06-.22.18.18,0,0,1,.15-.07.11.11,0,0,1,.08,0,.09.09,0,0,1,0,.07.19.19,0,0,1-.07.13.38.38,0,0,1-.16.06.11.11,0,0,0,0,.08.09.09,0,0,0,.07,0,.08.08,0,0,0,.07,0l.06-.05a.86.86,0,0,0,.1-.16s0,0,0,0h0a.37.37,0,0,1-.08.2A.26.26,0,0,1,9.6,2.92Zm-.07-.23a.16.16,0,0,0,.11,0,.1.1,0,0,0,0-.09s0-.06,0-.06a.09.09,0,0,0-.08.06A.32.32,0,0,0,9.53,2.69Z" transform="translate(68.22 52.72)"/><path class="cls-10" d="M9.94,2.57H10s0,0,0,0a.55.55,0,0,0,0,.09.57.57,0,0,0,0,.12s0,0,0,0l.06-.05.08-.14a.41.41,0,0,1,0-.09s0,0,0,0a.24.24,0,0,1,0,.12c-.06.15-.12.22-.17.22l-.08,0a.84.84,0,0,1,0-.12.48.48,0,0,1,0-.18c-.06,0-.09,0-.11,0a.14.14,0,0,1,0-.06.14.14,0,0,1,0-.06l0,0s0,0,.05,0a.08.08,0,0,1,0,0,.25.25,0,0,1,0,.07Z" transform="translate(68.22 52.72)"/><path class="cls-10" d="M10.39,2.59V2.53a0,0,0,0,0,0,0h0s-.06,0-.08.07a.27.27,0,0,0,0,.14.18.18,0,0,0,0,.11.08.08,0,0,0,.07,0,.1.1,0,0,0,.07,0l.06-.05a.83.83,0,0,0,.09-.16s0,0,0,0a0,0,0,0,1,0,0s0,0,0,0a.26.26,0,0,1,0,.11l-.05.09,0,.07a.22.22,0,0,1-.17.07.13.13,0,0,1-.11,0,.19.19,0,0,1,0-.12.39.39,0,0,1,.06-.23.22.22,0,0,1,.17-.07s0,0,.06,0a.05.05,0,0,1,0,0,.12.12,0,0,1,0,.07.05.05,0,0,1,0,0A0,0,0,0,1,10.39,2.59Z" transform="translate(68.22 52.72)"/><path class="cls-10" d="M11,2.63l.07,0,0,0h0a0,0,0,0,1,0,0l0,0a.28.28,0,0,1-.11,0,.24.24,0,0,1-.06.18.23.23,0,0,1-.18.07.13.13,0,0,1-.12-.07.25.25,0,0,1,0-.31.16.16,0,0,1,.13-.08.12.12,0,0,1,.09,0,.12.12,0,0,1,.09.06A.2.2,0,0,1,11,2.63Zm-.09.06h0a.13.13,0,0,1-.1,0,.09.09,0,0,1,0-.08.15.15,0,0,1,0-.07.25.25,0,0,0,0,.17.37.37,0,0,0,0,.12.1.1,0,0,0,.09.06.1.1,0,0,0,.08,0A.21.21,0,0,0,10.86,2.69Zm-.08-.21s0,0,0,0a.05.05,0,0,0,0,0,.12.12,0,0,0,0,.08.11.11,0,0,0,.08,0h0a.37.37,0,0,0,0-.12S10.81,2.48,10.78,2.48Z" transform="translate(68.22 52.72)"/><path class="cls-10" d="M11.11,2.92H11a.38.38,0,0,1,0-.16,2.41,2.41,0,0,1,0-.41c0-.14.06-.21.13-.21l0,0a.09.09,0,0,1,0,.05.86.86,0,0,1-.1.38,1.34,1.34,0,0,0,0,.19c0,.06,0,.08,0,.08l.06-.05.08-.14a.41.41,0,0,1,0-.09s0,0,0,0a.24.24,0,0,1,0,.12C11.22,2.85,11.16,2.92,11.11,2.92Zm.08-.71a.06.06,0,0,0,0,0s0,.11-.06.33A1.07,1.07,0,0,0,11.19,2.21Z" transform="translate(68.22 52.72)"/><path class="cls-10" d="M11.66,2.63l.07,0,0,0h0a0,0,0,0,1,0,0l0,0-.11,0a.25.25,0,0,1-.07.18.19.19,0,0,1-.17.07.13.13,0,0,1-.12-.07.25.25,0,0,1,0-.31.14.14,0,0,1,.13-.08.12.12,0,0,1,.09,0,.12.12,0,0,1,.09.06A.26.26,0,0,1,11.66,2.63Zm-.09.06h-.05a.13.13,0,0,1-.1,0,.09.09,0,0,1,0-.08.15.15,0,0,1,0-.07s-.05.09-.05.17a.22.22,0,0,0,0,.12.09.09,0,0,0,.08.06.11.11,0,0,0,.09,0A.21.21,0,0,0,11.57,2.69Zm-.08-.21s0,0,0,0a.05.05,0,0,0,0,0,.09.09,0,0,0,0,.08.11.11,0,0,0,.08,0h0a.37.37,0,0,0,0-.12S11.52,2.48,11.49,2.48Z" transform="translate(68.22 52.72)"/><path class="cls-10" d="M11.84,2.57h.09s0,0,0,0a.55.55,0,0,0,0,.09.57.57,0,0,0,0,.12s0,0,0,0L12,2.8l.08-.14a.41.41,0,0,1,0-.09s0,0,0,0a.24.24,0,0,1,0,.12c-.06.15-.12.22-.17.22l-.08,0a.84.84,0,0,1,0-.12.48.48,0,0,1,0-.18c-.06,0-.09,0-.11,0a.14.14,0,0,1,0-.06.14.14,0,0,1,0-.06l0,0s0,0,.05,0a.08.08,0,0,1,0,0,.25.25,0,0,1,0,.07Z" transform="translate(68.22 52.72)"/><path class="cls-10" d="M12.66,2.88a.21.21,0,0,0,.12,0,.14.14,0,0,0,.06-.12.21.21,0,0,0-.05-.12.11.11,0,0,1-.08,0c-.07,0-.1,0-.1-.07s0,0,0,0l.07,0a.19.19,0,0,1,.1,0,.18.18,0,0,0,.06-.13.19.19,0,0,0-.08-.14.34.34,0,0,0-.17,0h0s0,.07,0,.13,0,.21,0,.38,0,.1,0,.1h-.07a.22.22,0,0,1,0-.1,1.36,1.36,0,0,1,0-.15V2.35c0-.06,0-.1,0-.12a.1.1,0,0,0-.08.08s0,0,0,.06h-.07a0,0,0,0,1,0,0q0-.1.18-.15c0-.06,0-.09.07-.09s0,0,0,.07h.08a.25.25,0,0,1,.12,0,.24.24,0,0,1,.11.06.14.14,0,0,1,0,.11.26.26,0,0,1-.1.2.16.16,0,0,1,.07.14.19.19,0,0,1-.05.13.36.36,0,0,1-.25.1l-.15,0s0,0,0,0a0,0,0,0,1,0,0s0,0,.05,0l.08,0Zm.11-.32a.13.13,0,0,0-.08,0s0,0,0,0,0,0,.06,0Z" transform="translate(68.22 52.72)"/><path class="cls-10" d="M13.1,2.57h.09a0,0,0,0,1,0,0,.44.44,0,0,1,0,.09.57.57,0,0,0,0,.12s0,0,0,0a.12.12,0,0,0,.06-.05s.05-.09.08-.14,0-.09.05-.09a0,0,0,0,1,0,0,.41.41,0,0,1,0,.12c-.07.15-.13.22-.18.22l-.08,0V2.78a.5.5,0,0,1,0-.18.12.12,0,0,1-.11,0,.18.18,0,0,1,0-.12l0,0a.05.05,0,0,1,0,0,.08.08,0,0,1,0,0,.11.11,0,0,1,0,.07Z" transform="translate(68.22 52.72)"/><path class="cls-10" d="M13.32,2.8V2.65a.42.42,0,0,1,0-.15l.05,0,0,0h0v0a.36.36,0,0,1,0,.11.79.79,0,0,0,0,.2s0,.08,0,.08,0,0,.07-.05a.48.48,0,0,0,.08-.16c0-.09,0-.13,0-.14l0,0s0,0,0,0,0,0,0,0a.43.43,0,0,0,0,0s0,.05,0,.06a1,1,0,0,0,0,.23s0,0,0,0l.06-.05.08-.14a.41.41,0,0,1,0-.09s0,0,0,0a.24.24,0,0,1,0,.12c-.07.15-.12.22-.17.22l-.08,0s0,0,0-.06a.38.38,0,0,1,0-.1.48.48,0,0,1-.09.13.14.14,0,0,1-.09,0s-.06,0-.07,0A.2.2,0,0,1,13.32,2.8Z" transform="translate(68.22 52.72)"/><path class="cls-10" d="M14,2.51v0s0,0,0,0,0,0-.05,0,0,0,0,.06v.06s0,0,0,0h0v0l.17-.13h0a0,0,0,0,1,0,0,.91.91,0,0,0-.16.11.17.17,0,0,1,0,.1.09.09,0,0,1,0,.08.15.15,0,0,1-.1,0s0,0,0-.06,0-.07.08-.13l0,0,0,0,0,0a.14.14,0,0,1,0-.07.17.17,0,0,1,0-.12A.13.13,0,0,1,14,2.42s0,0,0,0,0,0,0,0,0,0,0,0S14,2.52,14,2.51Zm-.09.26a.15.15,0,0,0-.05.08s0,0,0,0,0,0,0,0A.08.08,0,0,0,13.91,2.77Z" transform="translate(68.22 52.72)"/><path class="cls-10" d="M14.18,2.84v0s0,0,0,0H14.1s0,0,0,0V2.78a.72.72,0,0,0,0-.13V2.57a.57.57,0,0,1,.12-.43l.06,0,0,0a.19.19,0,0,1,0,.08.78.78,0,0,1,0,.21.5.5,0,0,1-.08.15v.1l.05-.09.09-.12a.09.09,0,0,1,.06,0h0s0,0,0,0a1.16,1.16,0,0,1,0,.17,1,1,0,0,0,0,.14v0s0,0,.07-.05.05-.09.07-.14l.05-.09s0,0,0,0a.24.24,0,0,1,0,.12c-.07.15-.12.22-.17.22l-.08,0s0,0,0,0a.72.72,0,0,1,0-.13c0-.05,0-.1,0-.13s0,0,0,0,0,0-.08.09a.41.41,0,0,0-.07.12S14.18,2.81,14.18,2.84Zm.09-.58a.15.15,0,0,0,0-.06s0,0,0,.15,0,.11,0,.18A.72.72,0,0,0,14.27,2.26Z" transform="translate(68.22 52.72)"/><path class="cls-10" d="M15.26,2.31v0s0-.08-.1-.08a.18.18,0,0,0-.09,0s0,0,0,.08a.08.08,0,0,0,0,.07l.08.06.1,0,.09.07a.2.2,0,0,1,0,.11.23.23,0,0,1-.09.18.37.37,0,0,1-.2.07.48.48,0,0,1-.18,0,.13.13,0,0,1-.07-.12.13.13,0,0,1,0-.08.11.11,0,0,1,.08,0h0s0,0,0,0,0,0,0,0a0,0,0,0,0-.05,0,.12.12,0,0,0,0,.08.21.21,0,0,0,.12,0,.17.17,0,0,0,.17-.18.11.11,0,0,0,0-.08.22.22,0,0,0-.09-.07l-.1,0A.27.27,0,0,1,15,2.43a.1.1,0,0,1,0-.09A.17.17,0,0,1,15,2.2a.31.31,0,0,1,.17-.05.27.27,0,0,1,.12,0,.08.08,0,0,1,0,.08s0,0,0,.05a.05.05,0,0,1,0,0S15.26,2.32,15.26,2.31Z" transform="translate(68.22 52.72)"/><path class="cls-10" d="M15.75,2.7c-.07.15-.13.22-.18.22a.13.13,0,0,1-.08,0,.25.25,0,0,1,0-.11,1.63,1.63,0,0,1,0-.28c-.05,0-.07,0-.07,0s0,0,0,0h.05l0-.19a.05.05,0,0,1,0,0s0,0,0,0,0,0,0,.05a1.58,1.58,0,0,1,0,.23.13.13,0,0,0,.08,0l.05,0s0,0,0,0,0,0-.05,0l-.11,0c0,.13,0,.22,0,.29s0,.05,0,.05,0,0,.06-.05a.64.64,0,0,0,.08-.14c0-.06,0-.09,0-.09s0,0,0,0A.24.24,0,0,1,15.75,2.7Z" transform="translate(68.22 52.72)"/><path class="cls-10" d="M15.83,2.57h.09a0,0,0,0,1,0,0,.44.44,0,0,1,0,.09v.16s0,0,.07-.05l.07-.14.05-.09s0,0,0,0a.24.24,0,0,1,0,.12c-.07.15-.13.22-.17.22a.15.15,0,0,1-.08,0s0,0,0-.12a.9.9,0,0,1,0-.18.11.11,0,0,1-.1,0,.07.07,0,0,1,0-.06.13.13,0,0,1,0-.06l0,0s0,0,.05,0a.08.08,0,0,1,0,0,.25.25,0,0,1,0,.07Z" transform="translate(68.22 52.72)"/><path class="cls-10" d="M16.47,2.63l.07,0,0,0h0a0,0,0,0,1,0,0l0,0a.31.31,0,0,1-.1,0,.3.3,0,0,1-.07.18.21.21,0,0,1-.18.07.13.13,0,0,1-.12-.07.24.24,0,0,1,0-.15.24.24,0,0,1,.05-.16.16.16,0,0,1,.13-.08.14.14,0,0,1,.09,0,.12.12,0,0,1,.09.06A.2.2,0,0,1,16.47,2.63Zm-.09.06h-.05a.13.13,0,0,1-.1,0,.09.09,0,0,1,0-.08.15.15,0,0,1,0-.07.25.25,0,0,0-.05.17.37.37,0,0,0,0,.12.1.1,0,0,0,.09.06.1.1,0,0,0,.08,0A.16.16,0,0,0,16.38,2.69Zm-.08-.21s0,0,0,0,0,0,0,0a.1.1,0,0,0,.11.11h0a.37.37,0,0,0,0-.12S16.33,2.48,16.3,2.48Z" transform="translate(68.22 52.72)"/><path class="cls-10" d="M17,3h0s0,0,0,0,0,0,0,0h-.06a.13.13,0,0,1-.1,0l-.11-.18,0,0s0,0,.06-.05.09-.07.09-.11,0,0,0,0h0s-.05,0-.08.07a1.21,1.21,0,0,0-.05.14.68.68,0,0,0,0,.14s0,0,0,0h-.06s0,0,0,0a.89.89,0,0,0,0-.13,1.37,1.37,0,0,0,0-.16,2.22,2.22,0,0,1,0-.41l0,0,.06,0s0,0,0,0,0,.11,0,.21,0,.21,0,.3a.46.46,0,0,1,.07-.16s.07-.07.11-.07.09,0,.09.08a.15.15,0,0,1,0,.11.22.22,0,0,1-.09.07v0h0a1.07,1.07,0,0,0,.14.2Z" transform="translate(68.22 52.72)"/><path class="cls-10" d="M17.15,2.92A.14.14,0,0,1,17,2.86a.17.17,0,0,1,0-.12.34.34,0,0,1,.06-.22.18.18,0,0,1,.15-.07.11.11,0,0,1,.08,0,.09.09,0,0,1,0,.07.19.19,0,0,1-.07.13.44.44,0,0,1-.16.06.11.11,0,0,0,0,.08.08.08,0,0,0,.07,0,.08.08,0,0,0,.07,0l.06-.05a.51.51,0,0,0,.09-.16l0,0a0,0,0,0,1,0,0s0,0,0,0a.48.48,0,0,1-.08.2A.26.26,0,0,1,17.15,2.92Zm-.07-.23a.16.16,0,0,0,.11,0,.13.13,0,0,0,0-.09s0-.06,0-.06a.09.09,0,0,0-.08.06A.32.32,0,0,0,17.08,2.69Z" transform="translate(68.22 52.72)"/><path class="cls-10" d="M8.68,3.37h.06l-.16.45H8.53l-.17-.45h.06l.1.29,0,.1,0-.1Z" transform="translate(68.22 52.72)"/><path class="cls-10" d="M9.37,3.82H9.12V3.37h.25v0h-.2v.15h.19v0H9.17v.16h.2Z" transform="translate(68.22 52.72)"/><path class="cls-10" d="M10,3.41a.17.17,0,0,0-.12,0,.18.18,0,0,0,0,.13.2.2,0,0,0,0,.14.15.15,0,0,0,.12,0l.1,0v.05l-.11,0a.19.19,0,0,1-.16-.07.29.29,0,0,1,0-.29.18.18,0,0,1,.07-.08.21.21,0,0,1,.12,0,.24.24,0,0,1,.12,0l0,0Z" transform="translate(68.22 52.72)"/><path class="cls-10" d="M10.64,3.82h-.06V3.41h-.14v0h.34v0h-.14Z" transform="translate(68.22 52.72)"/><path class="cls-10" d="M11.55,3.59a.22.22,0,0,1-.05.17.21.21,0,0,1-.15.07.22.22,0,0,1-.16-.07.26.26,0,0,1,0-.17.29.29,0,0,1,0-.17.21.21,0,0,1,.16-.06.2.2,0,0,1,.15.06A.23.23,0,0,1,11.55,3.59Zm-.36,0a.26.26,0,0,0,0,.14.17.17,0,0,0,.12,0,.14.14,0,0,0,.11,0,.2.2,0,0,0,0-.14.17.17,0,0,0,0-.13.12.12,0,0,0-.11,0,.13.13,0,0,0-.12,0A.22.22,0,0,0,11.19,3.59Z" transform="translate(68.22 52.72)"/><path class="cls-10" d="M12,3.63v.19h0V3.37h.12a.23.23,0,0,1,.13,0,.13.13,0,0,1,0,.1.12.12,0,0,1-.1.12l.13.2h-.06l-.11-.19Zm0,0h.07a.12.12,0,0,0,.09,0,.08.08,0,0,0,0-.06.09.09,0,0,0,0-.07.13.13,0,0,0-.08,0H12Z" transform="translate(68.22 52.72)"/><path class="cls-10" d="M13.48,3.59a.21.21,0,0,1-.07.17.22.22,0,0,1-.17.06h-.12V3.37h.13a.24.24,0,0,1,.17.06A.21.21,0,0,1,13.48,3.59Zm-.06,0a.17.17,0,0,0,0-.13.2.2,0,0,0-.14,0h-.07v.36h.06a.2.2,0,0,0,.14,0A.2.2,0,0,0,13.42,3.59Z" transform="translate(68.22 52.72)"/><path class="cls-10" d="M14.14,3.82h-.25V3.37h.25v0h-.2v.15h.19v0h-.19v.16h.2Z" transform="translate(68.22 52.72)"/><path class="cls-10" d="M14.81,3.7a.1.1,0,0,1,0,.09.22.22,0,0,1-.24,0v0l.06,0h.06l.08,0a.06.06,0,0,0,0-.06,0,0,0,0,0,0,0l0,0-.07,0-.09,0a.11.11,0,0,1,0-.08.13.13,0,0,1,0-.09.18.18,0,0,1,.11,0,.27.27,0,0,1,.12,0l0,0-.1,0a.08.08,0,0,0-.07,0,.08.08,0,0,0,0,0,0,0,0,0,0,0,0s0,0,0,0l.06,0a.3.3,0,0,1,.1.05A.19.19,0,0,1,14.81,3.7Z" transform="translate(68.22 52.72)"/><path class="cls-10" d="M15.22,3.82V3.37h0v.45Z" transform="translate(68.22 52.72)"/><path class="cls-10" d="M15.91,3.58h.15V3.8l-.07,0H15.9a.2.2,0,0,1-.15-.07.22.22,0,0,1-.06-.17.27.27,0,0,1,0-.12.2.2,0,0,1,.08-.08.21.21,0,0,1,.12,0,.35.35,0,0,1,.14,0l0,0-.12,0a.17.17,0,0,0-.13,0,.19.19,0,0,0,0,.13.2.2,0,0,0,0,.14.17.17,0,0,0,.13,0H16V3.63h-.1Z" transform="translate(68.22 52.72)"/><path class="cls-10" d="M16.84,3.82h-.06l-.25-.38h0c0,.05,0,.09,0,.12v.26h-.05V3.37h.06l.24.37h0V3.37h.05Z" transform="translate(68.22 52.72)"/></svg>